<?xml version="1.0" encoding="utf-8"?>
<!-- Generator: Adobe Illustrator 27.5.0, SVG Export Plug-In . SVG Version: 6.00 Build 0)  -->
<svg version="1.1" xmlns="http://www.w3.org/2000/svg" xmlns:xlink="http://www.w3.org/1999/xlink" x="0px" y="0px"
	 viewBox="0 0 500 500" style="enable-background:new 0 0 500 500;" xml:space="preserve">
<g id="BACKGROUND">
	<rect style="fill:#F4EAE0;" width="500" height="500"/>
</g>
<g id="OBJECTS">
	<g>
		<path style="fill:#EDDFD3;" d="M456.436,322.619c-12.042-13.947-27.729-24.572-38.686-39.387
			c-24.579-33.234-20.175-78.607-23.906-119.774c-1.149-12.676-3.25-25.516-9.024-36.859s-15.722-21.107-28.102-24.064
			c-12.415-2.966-25.517,1.178-36.669,7.387c-11.168,6.218-21.052,14.448-32.186,20.721c-13.529,7.622-28.762,12.2-44.251,13.297
			c-20.104,1.424-40.109-2.926-59.867-6.902c-21.242-4.274-43.266-8.136-64.413-3.415c-21.147,4.721-41.366,20.154-45.096,41.498
			c-2.852,16.321,4.186,32.774,13.052,46.77c22.649,35.755,46.425,73.562,19.949,115.418
			C90.246,364.172,42.122,406.433,75.673,440.5c12.606,12.8,38.899,10.668,55.025,8.555c20.874-2.735,40.965-9.837,60.339-17.832
			c31.333-12.931,62.36-28.454,96.048-32.209c48.433-5.398,98.021,14.108,145.561,3.388c14.709-3.317,35.198-12.099,39.275-28.403
			C476.338,356.332,467.749,335.723,456.436,322.619z"/>
		<g>
			<path style="fill:#566EBC;" d="M117.818,176.884c-1.283-10.862-5.708-21.435-13.005-27.641
				c-7.297-6.207-17.576-7.32-25.021-1.389c-6.091,4.853-10.483,13.353-12.516,22.024c-3.183-6.019-9.717-8.566-15.361-6.901
				c-5.644,1.665-10.302,7.001-12.963,13.398c-2.667,6.41-3.485,13.967-2.311,21.031h113.332
				C145.661,166.209,122.956,169.098,117.818,176.884z"/>
			<path style="fill:none;stroke:#000000;stroke-miterlimit:10;" d="M67.278,170.052c2.674,5.385,4.571,11.363,5.573,17.564"/>
			<path style="fill:none;stroke:#000000;stroke-miterlimit:10;" d="M118.104,176.283c-2.757,3.632-4.576,7.711-5.312,11.912"/>
		</g>
		<g>
			<path style="fill:#566EBC;" d="M367.615,405.25c2.401-13.389,16.366-20.979,29.122-16.981
				c14.143,4.433,22.975,19.263,22.975,19.263s2.794-4.38,7.094-5.814c9.371-3.124,16.638-1.348,25.36,6.504
				c5.614,5.054,8.883,17.849,8.883,17.849h-93.832C367.217,426.071,366.191,413.189,367.615,405.25z"/>
			<path style="fill:none;stroke:#000000;stroke-miterlimit:10;" d="M419.592,407.941c-1.973,3.893-3.418,8.053-4.283,12.331"/>
		</g>
		<g>
			<path style="fill:#566EBC;" d="M450.438,70.284c-0.585-4.626-1.179-9.293-2.729-13.69c-1.938-5.498-5.325-10.407-9.347-14.628
				c-10.252-10.76-29.637-13.081-40.298-3.495c-5.333,4.795-7.662,9.303-9.906,16.115c-3.398-4.51-9.113-7.169-14.751-6.865
				c-5.638,0.305-11.034,3.565-13.925,8.415c-2.653,4.448-3.173,9.806-3.632,14.965c-6.743-2.162-14.505-0.827-20.139,3.462
				c-4.092,3.116-6.972,7.731-8.135,12.734h150.414c-0.987-4.112-2.559-8.085-4.69-11.738c-1.674-2.87-3.807-5.653-6.818-7.059
				C461.457,66.156,454.923,66.901,450.438,70.284z"/>
			<path style="fill:none;stroke:#000000;stroke-miterlimit:10;" d="M355.868,71.011c-0.23,3.12,0.194,6.287,1.237,9.238"/>
			<path style="fill:none;stroke:#000000;stroke-miterlimit:10;" d="M388.029,54.286c5.14,5.744,7.782,11.691,9.865,19.113"/>
			<path style="fill:none;stroke:#000000;stroke-miterlimit:10;" d="M450.232,70.372c-3.352,1.935-6.151,4.817-7.986,8.226"/>
		</g>
		<g>
			
				<line style="fill:none;stroke:#F7B154;stroke-width:1.5;stroke-linejoin:round;stroke-miterlimit:10;" x1="157.654" y1="69.382" x2="152.544" y2="74.493"/>
			
				<line style="fill:none;stroke:#F7B154;stroke-width:1.5;stroke-linejoin:round;stroke-miterlimit:10;" x1="148.946" y1="78.091" x2="143.835" y2="83.201"/>
			
				<line style="fill:none;stroke:#F7B154;stroke-width:1.5;stroke-linejoin:round;stroke-miterlimit:10;" x1="157.654" y1="83.201" x2="152.544" y2="78.091"/>
			
				<line style="fill:none;stroke:#F7B154;stroke-width:1.5;stroke-linejoin:round;stroke-miterlimit:10;" x1="148.946" y1="74.493" x2="143.836" y2="69.382"/>
		</g>
		<g>
			
				<line style="fill:none;stroke:#F7B154;stroke-width:1.5;stroke-linejoin:round;stroke-miterlimit:10;" x1="78.046" y1="243.091" x2="72.935" y2="248.201"/>
			
				<line style="fill:none;stroke:#F7B154;stroke-width:1.5;stroke-linejoin:round;stroke-miterlimit:10;" x1="69.337" y1="251.799" x2="64.227" y2="256.909"/>
			
				<line style="fill:none;stroke:#F7B154;stroke-width:1.5;stroke-linejoin:round;stroke-miterlimit:10;" x1="78.046" y1="256.909" x2="72.935" y2="251.799"/>
			
				<line style="fill:none;stroke:#F7B154;stroke-width:1.5;stroke-linejoin:round;stroke-miterlimit:10;" x1="69.337" y1="248.201" x2="64.227" y2="243.091"/>
		</g>
		<g>
			
				<line style="fill:none;stroke:#F7B154;stroke-width:1.5;stroke-linejoin:round;stroke-miterlimit:10;" x1="389.242" y1="341.857" x2="384.132" y2="346.968"/>
			
				<line style="fill:none;stroke:#F7B154;stroke-width:1.5;stroke-linejoin:round;stroke-miterlimit:10;" x1="380.534" y1="350.565" x2="375.424" y2="355.676"/>
			
				<line style="fill:none;stroke:#F7B154;stroke-width:1.5;stroke-linejoin:round;stroke-miterlimit:10;" x1="389.242" y1="355.676" x2="384.132" y2="350.565"/>
			
				<line style="fill:none;stroke:#F7B154;stroke-width:1.5;stroke-linejoin:round;stroke-miterlimit:10;" x1="380.534" y1="346.968" x2="375.424" y2="341.857"/>
		</g>
		<g>
			
				<line style="fill:none;stroke:#F7B154;stroke-width:1.5;stroke-linejoin:round;stroke-miterlimit:10;" x1="414.159" y1="113.631" x2="409.049" y2="118.742"/>
			
				<line style="fill:none;stroke:#F7B154;stroke-width:1.5;stroke-linejoin:round;stroke-miterlimit:10;" x1="405.451" y1="122.34" x2="400.34" y2="127.45"/>
			
				<line style="fill:none;stroke:#F7B154;stroke-width:1.5;stroke-linejoin:round;stroke-miterlimit:10;" x1="414.159" y1="127.45" x2="409.049" y2="122.34"/>
			
				<line style="fill:none;stroke:#F7B154;stroke-width:1.5;stroke-linejoin:round;stroke-miterlimit:10;" x1="405.451" y1="118.742" x2="400.341" y2="113.631"/>
		</g>
		<g>
			
				<line style="fill:none;stroke:#F7B154;stroke-width:1.5;stroke-linejoin:round;stroke-miterlimit:10;" x1="440.107" y1="151.793" x2="434.997" y2="156.904"/>
			
				<line style="fill:none;stroke:#F7B154;stroke-width:1.5;stroke-linejoin:round;stroke-miterlimit:10;" x1="431.399" y1="160.502" x2="426.289" y2="165.612"/>
			
				<line style="fill:none;stroke:#F7B154;stroke-width:1.5;stroke-linejoin:round;stroke-miterlimit:10;" x1="440.107" y1="165.612" x2="434.997" y2="160.502"/>
			
				<line style="fill:none;stroke:#F7B154;stroke-width:1.5;stroke-linejoin:round;stroke-miterlimit:10;" x1="431.399" y1="156.904" x2="426.289" y2="151.793"/>
		</g>
		<polygon style="fill:none;stroke:#C15656;stroke-width:1.5;stroke-linejoin:round;stroke-miterlimit:10;" points="
			136.274,107.289 114.183,123.755 137.405,138.493 		"/>
		<polygon style="fill:none;stroke:#C15656;stroke-width:1.5;stroke-linejoin:round;stroke-miterlimit:10;" points="
			409.049,313.579 422.811,341.491 440.206,319.434 		"/>
		<polygon style="fill:none;stroke:#C15656;stroke-width:1.5;stroke-linejoin:round;stroke-miterlimit:10;" points="75.49,412.399 
			51.568,422.925 69.337,442.241 		"/>
	</g>
	<g>
		<defs>
			<rect id="SVGID_1_" width="500" height="500"/>
		</defs>
		<clipPath id="SVGID_00000150101805080035261610000007816364864313386375_">
			<use xlink:href="#SVGID_1_"  style="overflow:visible;"/>
		</clipPath>
		<g style="clip-path:url(#SVGID_00000150101805080035261610000007816364864313386375_);">
			<g>
				<path style="fill:#EB8B65;" d="M270.898,185.806l2.783,26.328c0,0,7.557,25.606-13.117,31.011
					c-22.301,5.67-54.353-19.946-54.353-19.946l0.997-40.47"/>
				<path style="fill:#EB8B65;" d="M209.439,146.305c1.591-8.992,6.112-17.548,13.821-22.711c7.929-5.311,18.999-8.448,27.908-5.863
					c8.562,2.485,16.091,14.376,20.267,22.037c6.521,11.962,11.958,31.561,7.842,41.868c-3.944,9.876-13.719,14.962-23.288,15.72
					c-26.51,2.101-50.886-24.252-46.655-50.427C209.367,146.721,209.402,146.513,209.439,146.305z"/>
				<path style="fill:none;stroke:#000000;stroke-miterlimit:10;" d="M258.14,144.059c0,0,5.677,12.16,7.211,17.224
					c1.205,3.978-7.068,2.888-8.425,3.372"/>
				<path d="M237.165,152.324c0.627,1.824,2.052,2.987,3.182,2.599c1.13-0.389,1.538-2.182,0.911-4.006
					c-0.627-1.824-2.052-2.987-3.182-2.599C236.946,148.707,236.538,150.5,237.165,152.324z"/>
				<path d="M265.016,146.334c0.627,1.824,2.052,2.987,3.182,2.599c1.13-0.389,1.538-2.182,0.911-4.006
					c-0.627-1.824-2.052-2.987-3.182-2.599C264.796,142.716,264.389,144.51,265.016,146.334z"/>
				<path style="fill:#261B17;" d="M184.41,164.724c-6.929-20.806-2.487-41.469,16.703-54.307
					c11.187-7.484,25.754-10.693,38.986-7.9c12.134,2.561,21.675,10.649,26.617,19.067c4.326,7.367,1.847,13.581,2.208,14.04
					c-6.045-10.478-9.904-13.04-10.958-13.892c-0.998,7.486-14.021,13.614-36.907,8.592c-3.062-0.672-5.712,2.128-4.866,5.147
					c2.255,8.048,1.223,16.688-4.51,22.652c-1.027,1.068,2.797,20.374,2.514,21.926c-1.282,7.037-7.506,11.766-7.506,11.766
					c-0.107-0.073-0.214-0.146-0.32-0.22c-3.272-2.256-6.544-4.604-9.502-7.264C190.95,179.008,186.89,172.172,184.41,164.724z"/>
				<path style="fill:none;stroke:#000000;stroke-miterlimit:10;" d="M271.658,192.29c-8.73,5.382-18.845,5.64-28.433,2.726"/>
				<g>
					<path style="fill:#EB8B65;" d="M221.755,161.918c-2.616-5.542-8.902-8.594-13.306-7.67c-6.53,1.371-9.359,8.063-9.305,13.811
						c0.049,5.237,1.52,9.714,4.991,13.979c3.261,4.006,8.319,7.487,13.532,6.221c3.548-0.861,6.736-4.485,6.847-7.611"/>
					<line style="fill:none;stroke:#000000;stroke-miterlimit:10;" x1="221.02" y1="176.384" x2="205.803" y2="164.969"/>
					<path style="fill:none;stroke:#000000;stroke-miterlimit:10;" d="M224.759,181.962c-1.923,6.247-8.912,8.649-13.769,5.629"/>
					<path style="fill:none;stroke:#000000;stroke-miterlimit:10;" d="M222.486,162.183c-1.345-1.907-4.634-5.819-7.579-6.961"/>
				</g>
				<path style="fill:#261B17;" d="M225.039,141.701c-0.166,0.14-0.32,0.289-0.457,0.449c-0.801,0.928-0.663,2.389,0.308,3.172
					c1.184,0.954,2.807,0.482,4.101,0.059c1.579-0.517,3.133-1.111,4.524-2.037c1.956-1.301,3.641-3.377,3.866-5.792
					c0.077-0.831-0.245-2.172-1.115-2.523c-1.07-0.432-1.869,0.995-2.457,1.64c-0.828,0.909-1.71,1.773-2.771,2.406
					c-1.25,0.746-2.652,1.064-4.014,1.538C226.335,140.852,225.615,141.215,225.039,141.701z"/>
				<path style="fill:#261B17;" d="M259.851,135.929c1.523,0.313,3.39,0.14,4.843-0.393c1.63-0.598,3.443-2.901,0.86-3.82
					c-2.171-0.772-4.632,0.155-6.734-0.628c-0.82-0.305-2.361-1.126-3.208-0.525c-1.398,0.992,0.085,3.237,1.051,3.908
					C257.764,135.235,258.806,135.714,259.851,135.929z"/>
				<path style="fill:none;stroke:#000000;stroke-miterlimit:10;" d="M249.809,175.196c3.121-2.658,8.955-2.942,11.191,1.003"/>
			</g>
			<g>
				<path style="fill:#B78E7E;" d="M338.003,392.903l-5.722,22.872l2.135,17.892c0,0,31.504,98.531,35.643,140.507
					c3.008,30.501-5.742,66.14-20.259,105.219c-14.517,39.079-33.154,88.911-33.154,88.911L231.223,728l43.203-147.396
					c0,0-35.905-167.464-31.022-207.644"/>
				<path style="fill:none;stroke:#000000;stroke-miterlimit:10;" d="M293.41,425.934c0,0-1.763,41.658-2.468,43.309
					c-0.705,1.651-13.697-0.994-13.697-0.994"/>
				<path style="fill:#B78E7E;" d="M273.626,401.301l1.809,48.967l39.497,376.937c0,0-121.12,0-120.982,0
					c0.137,0-15.254-310.39-15.254-310.39s-26.264-38.503,0.099-102.459l4.944-24.961"/>
				<polyline style="fill:none;stroke:#000000;stroke-miterlimit:10;" points="277.894,404.911 277.245,467.537 314.932,827.205 
									"/>
				<polygon style="fill:#1C1311;" points="334.417,433.667 177.359,415.894 180.515,400.666 334.085,415.113 				"/>
				<path style="fill:none;stroke:#F7B154;stroke-width:3;stroke-miterlimit:10;" d="M294.647,430.429l-20.925-3.208
					c-1.801-0.276-3.131-1.826-3.131-3.648V411.8c0-2.261,2.015-3.991,4.25-3.648l20.925,3.208c1.801,0.276,3.131,1.826,3.131,3.648
					v11.772C298.897,429.042,296.882,430.772,294.647,430.429z"/>
				
					<line style="fill:none;stroke:#B78E7E;stroke-width:3;stroke-miterlimit:10;" x1="321.901" y1="412.399" x2="321.901" y2="433.667"/>
				
					<line style="fill:none;stroke:#B78E7E;stroke-width:3;stroke-miterlimit:10;" x1="200.314" y1="398.908" x2="197.225" y2="419.246"/>
				
					<line style="fill:none;stroke:#B78E7E;stroke-width:3;stroke-miterlimit:10;" x1="243.978" y1="404.911" x2="240.992" y2="425.053"/>
				<path style="fill:none;stroke:#000000;stroke-miterlimit:10;" d="M311.372,431.059c0,0,10.214,26.503,33.592,37.224"/>
				<path style="fill:none;stroke:#000000;stroke-miterlimit:10;" d="M187.946,454.141c15.493-4.734,27.953-17.974,31.51-33.484"/>
			</g>
			<g>
				<g>
					<g>
						<path style="fill:#EB8B65;" d="M348.726,134.723c0,0,57.337,41.475,72.558,53.701c15.222,12.226,24.891,32.474,20.289,51.829
							c-4.352,18.305-23.287,31.165-48.254,34.028c-19.47,2.232-33.271,2.017-33.271,2.017l-1.775-61.892l-36.333-38.57"/>
						<g>
							<path style="fill:#EB8B65;" d="M334.983,181.887c0,0,20.271-41.439,20.29-41.477c0.464-0.981-7.336-7.15-8.243-8.041
								c-7.792-7.657-16.035-14.652-25.661-19.897c-9.449-5.148-19.641-8.835-30.025-11.587c-1.886-0.5-4.308-0.842-5.507,0.662
								c-0.619,0.777-0.672,1.828-0.512,2.774c0.443,2.612,2.295,4.831,4.54,6.381c2.245,1.55,4.877,2.521,7.478,3.476
								l-19.322,22.767c0,0,20.594,23.735,30.294,28.135"/>
							<path style="fill:#EB8B65;" d="M303.407,108.455c-8.173-2.858-15.925-5.37-24.534-6.88c-4.43-0.777-8.555-1.19-13.058-1.357
								c-1.28-0.048-4.64-0.187-5.884,0.137c-2.077,0.54-3.951,2.032-3.543,4.096c0.474,2.399,2.511,4.297,4.712,5.387
								c2.392,1.185,5.106,1.661,7.723,2.33c9.719,2.482,18.303,7.686,27.407,11.679"/>
							<path style="fill:none;stroke:#000000;stroke-miterlimit:10;" d="M285.34,102.88c6.427,1.091,15.726,2.929,20.521,4.634"/>
							<path style="fill:none;stroke:#000000;stroke-miterlimit:10;" d="M266.476,100.245c0,0-0.911,3.778-1.74,5.108
								c-0.273,0.438-0.681,0.824-1.16,0.954c-0.834,0.226-1.703-0.129-2.384-0.484c-0.833-0.434-1.26-0.983-1.289-2.015
								c-0.03-1.081,0.922-3.064,0.937-3.591"/>
							<path style="fill:#EB8B65;" d="M297.081,113.554c-8.088-3.091-15.765-5.824-24.327-7.58
								c-3.961-0.812-10.512-1.982-15.442-2.307c-1.279-0.084-2.581-0.167-3.834,0.121c-1.253,0.288-2.47,1.011-2.995,2.125
								c-0.274,0.581-0.343,1.231-0.298,1.86c0.186,2.564,2.21,4.698,4.567,5.951c2.357,1.253,5.056,1.807,7.653,2.55
								c9.644,2.76,18.075,8.207,27.061,12.459"/>
							<path style="fill:none;stroke:#000000;stroke-miterlimit:10;" d="M297.081,113.554c-8.088-3.091-15.765-5.824-24.327-7.58
								c-3.961-0.812-12.898-2.048-17.828-2.374"/>
							<path style="fill:none;stroke:#000000;stroke-miterlimit:10;" d="M261.59,104.325c-0.584,1.665-0.984,3.709-1.987,5.22
								c-0.33,0.497-0.815,0.931-1.373,1.065c-0.972,0.233-1.965-0.205-2.741-0.639c-0.949-0.53-1.425-1.179-1.423-2.373
								c0.001-1.251,0.731-2.912,1.373-4.027"/>
							<path style="fill:#EB8B65;" d="M292.383,121.83c-7.754-3.794-13.403-6.539-21.755-9.045
								c-4.297-1.289-10.698-2.969-15.144-3.661c-1.264-0.197-2.553-0.394-3.826-0.217c-1.274,0.176-2.553,0.79-3.181,1.854
								c-0.328,0.555-0.623,1.777-0.638,2.408c-0.058,2.572,1.919,4.298,4.146,5.754c2.227,1.457,4.859,2.247,7.373,3.217
								c9.334,3.601,17.205,9.774,25.743,14.804"/>
							<path style="fill:none;stroke:#000000;stroke-miterlimit:10;" d="M292.383,121.83c-7.754-3.794-13.403-6.539-21.755-9.045
								c-4.297-1.289-10.698-2.969-15.144-3.661c-1.264-0.197-2.553-0.394-3.826-0.217"/>
							<path style="fill:#EB8B65;" d="M335.154,182.729c-10.518-7.154-18.376-8.25-30.235-13.236
								c-10.057-4.229-18.456-11.395-25.739-18.969c-5.464-5.682-9.146-12.302-15.873-16.712c-5.3-3.475-12.297-5.854-14.936-9.882
								c-0.7-1.068-0.983-2.401-0.821-3.652c0.162-1.25,0.996-2.477,2.269-2.871c0.898-0.278,1.902-0.199,2.804,0.072
								c3.345,1.006,10.903,2.752,15.154,4.885c7.319,3.673,12.023,5.662,17.957,9.46"/>
							<path style="fill:none;stroke:#000000;stroke-miterlimit:10;" d="M273.626,144.023c-1.605-2.85-9.098-9.409-10.32-10.21
								c-3.418-2.241-7.541-4.026-10.747-6.092"/>
							<path style="fill:none;stroke:#000000;stroke-miterlimit:10;" d="M285.733,131.825c-5.935-3.798-11.892-7.283-20.025-10.375
								c-4.445-1.69-9.74-2.964-13.085-3.97c-0.902-0.271-1.906-0.35-2.804-0.072"/>
							<path style="fill:none;stroke:#000000;stroke-miterlimit:10;" d="M257.139,118.906c-0.674,1.327-1.223,3.002-2.251,4.135
								c-0.339,0.373-0.807,0.668-1.313,0.698c-0.879,0.052-1.712-0.47-2.355-0.955c-0.786-0.593-1.143-1.216-1.027-2.23
								c0.121-1.062,0.924-2.364,1.596-3.214"/>
							<path style="fill:none;stroke:#000000;stroke-miterlimit:10;" d="M259.08,109.914c-0.605,1.656-1.031,3.692-2.053,5.186
								c-0.336,0.492-0.827,0.918-1.387,1.043c-0.975,0.218-1.963-0.235-2.734-0.68c-0.943-0.544-1.411-1.2-1.394-2.394
								c0.017-1.25,0.768-2.9,1.424-4.004"/>
							<path style="fill:none;stroke:#000000;stroke-miterlimit:10;" d="M316.647,173.888c4.768,1.711,10.847,5.202,15.111,7.998"/>
						</g>
						<line style="fill:none;stroke:#000000;stroke-miterlimit:10;" x1="387.271" y1="242.47" x2="358.273" y2="214.406"/>
					</g>
					<path style="fill:#5A2430;" d="M269.405,211.785c13.101-3.742,25.701-2.974,39.076-1.995
						c14.375,1.053,35.417,2.506,49.792,3.557l3.466,89.435l-62.165-4.606"/>
					<line style="fill:none;stroke:#000000;stroke-miterlimit:10;" x1="335.154" y1="211.814" x2="336.658" y2="300.923"/>
				</g>
				<g>
					<path style="fill:#5A2430;" d="M321.507,262.894c9.717,44.332,19.434,88.664,29.151,132.997c0.53,2.42,0.971,4.869,0.972,7.346
						c0.01,15.881-17.39,20.552-17.39,20.552l-0.304-8.069c0,0-37.75-4.048-55.613-5.57c-33.219-2.832-63.959,0.447-96.901-4.689
						c-6.152-0.959-11.027-6.275-12.334-12.336c-0.957-4.44,0.08-9.567,0.359-14.084c0.628-10.17-1.269-31.065-0.756-41.241
						c1.437-28.501,0.227-57.071,1.363-85.54l8.642-28.406l12.341-3.293c0,0,40.792,16.13,63.889,12.312
						c23.097-3.818,53.01-7.202,53.01-7.202"/>
					<g>
						<polygon style="fill:none;stroke:#000000;stroke-miterlimit:10;" points="265.054,284.378 252.898,285.243 245.312,233.555 
							257.467,232.691 						"/>
						<path style="fill:none;stroke:#000000;stroke-miterlimit:10;" d="M255.446,242.318c0.126,1.407-0.912,2.65-2.319,2.777
							c-1.407,0.126-2.65-0.912-2.776-2.319c-0.126-1.407,0.912-2.65,2.319-2.777C254.077,239.872,255.32,240.911,255.446,242.318z"
							/>
						<path style="fill:none;stroke:#000000;stroke-miterlimit:10;" d="M257.797,257.807c0.126,1.407-0.912,2.65-2.319,2.776
							c-1.407,0.126-2.65-0.912-2.776-2.319s0.912-2.65,2.319-2.776C256.428,255.361,257.671,256.4,257.797,257.807z"/>
						<path style="fill:none;stroke:#000000;stroke-miterlimit:10;" d="M260.148,273.296c0.126,1.407-0.912,2.65-2.319,2.777
							c-1.407,0.126-2.65-0.912-2.777-2.319c-0.126-1.407,0.912-2.65,2.319-2.777S260.022,271.889,260.148,273.296z"/>
					</g>
					<g>
						<path style="fill:none;stroke:#000000;stroke-miterlimit:10;" d="M307.432,323.791L307.432,323.791
							c-9.231,0.54-17.799-6.41-19.136-15.524l-2.983-20.323l33.429-1.957l2.983,20.323
							C323.062,315.425,316.663,323.251,307.432,323.791z"/>
						<line style="fill:none;stroke:#000000;stroke-miterlimit:10;" x1="286.494" y1="295.988" x2="319.922" y2="294.032"/>
					</g>
					<path style="fill:none;stroke:#000000;stroke-miterlimit:10;" d="M232.318,337.799c24.966,17.534,52.837,30.92,82.13,39.445"/>
					<path style="fill:none;stroke:#000000;stroke-miterlimit:10;" d="M262.945,342.692c17.241,4.127,34.794,6.955,52.459,8.453"/>
					<polygon style="fill:#5A2430;" points="274.021,200.22 253.658,230.869 206.279,203.143 191.037,220.559 234.441,256.25 
						254.274,234.567 275.626,250 284.744,208.682 					"/>
					<polyline style="fill:none;stroke:#000000;stroke-miterlimit:10;" points="191.037,220.559 234.441,256.25 254.274,234.567 
						275.626,250 284.744,208.682 					"/>
					<line style="fill:none;stroke:#000000;stroke-miterlimit:10;" x1="329.73" y1="300.41" x2="321.94" y2="258.967"/>
					<path style="fill:none;stroke:#000000;stroke-miterlimit:10;" d="M333.963,416.274c3.955,0.686,8.18-0.802,11.001-3.875"/>
				</g>
				<g>
					<path style="fill:#EB8B65;" d="M160.871,340.426l-20.063,21.73l34.346,49.196l-42.591,35.323c0,0-49.755-51.96-59.699-67.758
						c-4.24-6.735-6.983-14.623-7.456-22.59c-0.587-9.879,0.856-14.945,5.79-23.524c6.021-10.469,23.717-34.151,27.915-39.66"/>
					<path style="fill:#5A2430;" d="M190.343,221.115c-10.964,2.571-19.207,2.555-31.549,7.879
						c-9.614,4.147-17.05,9.592-23.835,17.388c-14.151,16.262-47.795,60.751-47.795,60.751l70.118,45.589l32-43.242"/>
					<line style="fill:none;stroke:#000000;stroke-miterlimit:10;" x1="157.282" y1="352.723" x2="189.282" y2="309.481"/>
					<line style="fill:none;stroke:#000000;stroke-miterlimit:10;" x1="103.425" y1="285.455" x2="172.923" y2="331.587"/>
					<g>
						<path style="fill:#EB8B65;" d="M221.714,435.06c2.148-6.294-1.015-13.478-6.133-17.724
							c-5.118-4.246-11.801-6.078-18.356-7.201c-5.56-0.953-21.364-0.675-26.853,0.626c-5.682,1.346-12.275,4.223-20.398,12.164
							l-14.782,19.839c0,0,13.097,13.393,27.43,11.953c14.333-1.44,30.208-9.028,33.936-8.042
							c3.727,0.986,15.824,2.714,15.824,2.714"/>
						<path style="fill:#EB8B65;" d="M199.428,418.709c10.261,1.715,21.607,7.559,23.156,18.916
							c0.561,4.111-1.231,9.953-4.247,13.712"/>
						<path style="fill:none;stroke:#000000;stroke-miterlimit:10;" d="M199.428,418.709c10.261,1.715,21.607,7.559,23.156,18.916
							c0.561,4.111-1.231,9.953-4.247,13.712"/>
						<path style="fill:#EB8B65;" d="M196.472,427.806c4.024,0.689,8.07,1.503,11.791,3.182c10.486,4.731,12.505,18.46,7.359,27.232
							c-1.618,2.758-3.773,5.901-6.646,7.322"/>
						<path style="fill:none;stroke:#000000;stroke-miterlimit:10;" d="M196.472,427.806c4.024,0.689,8.07,1.503,11.791,3.182
							c10.486,4.731,12.505,18.46,7.359,27.232c-1.618,2.758-3.773,5.901-6.646,7.322"/>
						<path style="fill:#EB8B65;" d="M128.993,442.497c5.152,9.262,13.243,17.518,23.505,20.855c6.149,2,12.168,1.693,18.429,0.585
							c5.712-1.011,10.571-3.9,15.289-7.323c2.984,1.445,7.087,0.93,10.402,0.854c-0.362,2.655-0.01,7.747,1.821,9.876
							c1.831,2.129,4.867,2.025,7.662,1.756c3.368-0.324,3.411-4.509,4.092-7.234c0.975-3.903,1.269-8.067,0.426-12.022
							c-0.762-3.571-2.737-6.214-5.737-8.296c-3-2.082-11.247-3.093-11.247-3.093"/>
						<path style="fill:none;stroke:#000000;stroke-miterlimit:10;" d="M196.618,457.468c-0.362,2.655-0.01,7.747,1.821,9.876"/>
						<path style="fill:none;stroke:#000000;stroke-miterlimit:10;" d="M208.877,466.299c0.636-1.481,1.001-3.17,1.316-4.433
							c0.975-3.903,1.269-8.067,0.426-12.022c-0.762-3.571-2.737-6.214-5.737-8.296c-3-2.082-11.247-3.093-11.247-3.093"/>
						<path style="fill:none;stroke:#000000;stroke-miterlimit:10;" d="M184.641,457.895c1.661-1.247,3.321-2.494,4.982-3.741"/>
						<path style="fill:none;stroke:#000000;stroke-miterlimit:10;" d="M186.216,456.814c2.386,0.578,4.817,0.887,7.251,0.922
							c2.298,0.033,4.691-0.065,6.847-1.121"/>
						<path style="fill:none;stroke:#000000;stroke-miterlimit:10;" d="M210.177,460.546c-0.837,0.136-1.674,0.271-2.511,0.407
							c-1.078,0.175-2.174,0.355-3.152,0.84c-1.411,0.699-1.232,3.065,0.314,3.528c1.406,0.421,3.557,0.353,4.74-0.623"/>
						<path style="fill:none;stroke:#000000;stroke-miterlimit:10;" d="M149.974,422.925c7.818-8.237,14.866-11.334,24.341-12.775"
							/>
					</g>
					<path style="fill:none;stroke:#000000;stroke-miterlimit:10;" d="M140.808,362.156c0,0-14.693-18.11-32.938-20.665"/>
				</g>
				<path style="fill:none;stroke:#000000;stroke-miterlimit:10;" d="M65.505,307.251c-10.67,11.629-16.606,27.482-16.195,43.26"/>
				<path style="fill:none;stroke:#000000;stroke-miterlimit:10;" d="M68.882,290.117c-9.601,9.143-17.543,20.022-23.327,31.951"/>
				<path style="fill:none;stroke:#000000;stroke-miterlimit:10;" d="M443.485,185.497c13.139,13.49,20.413,32.507,19.629,51.322"/>
				<path style="fill:none;stroke:#000000;stroke-miterlimit:10;" d="M459.674,181.938c8.961,8.718,14.651,20.723,15.726,33.179"/>
			</g>
			<path style="fill:none;stroke:#000000;stroke-width:1.5;stroke-miterlimit:10;" d="M211.989,59.059
				c1.107,0.063,2.198,0.381,3.165,0.923c0.752,0.422,1.462,1.025,1.719,1.848c0.76,2.435-2.041,5.378-1.882,8.091
				c0.026,0.449,0.102,0.908,0.333,1.293c0.426,0.709,1.298,1.03,2.123,1.081c1.845,0.113,3.708-0.974,4.518-2.636
				c0.81-1.662,0.518-3.799-0.709-5.182c-1.3-1.467-3.457-1.985-5.384-1.624c-8.57,1.606-9.005,13.109-7.03,19.71
				c1.396,4.668,5.131,8.813,9.911,9.759c2.708,0.536,5.556,0.033,8.082-1.081c6.218-2.741,10.414-9.076,11.619-15.764
				c0.906-5.032,0.212-10.488-2.663-14.716c-2.676-3.934-7.093-6.538-11.774-7.392c-6.47-1.18-13.949,1.046-18.088,6.341
				c-2.076,2.656-3.156,6.171-2.513,9.48c0.973,5.006,5.517,7.787,10.4,7.682c5.916-0.127,10.43-3.771,15.82-5.732
				c4.623-1.682,9.777-2.494,14.451-0.959c4.674,1.535,8.643,5.877,8.573,10.796c-0.074,5.252-4.908,9.713-10.137,10.214
				c-5.228,0.501-10.408-2.42-13.509-6.659c-2.199-3.005-3.501-6.704-3.421-10.428c0.081-3.723,1.596-7.441,4.311-9.989
				c2.866-2.69,6.76-3.914,10.292-5.639c3.532-1.724,7.06-4.408,7.786-8.27c0.564-3.002-0.765-6.144-2.915-8.314
				c-2.15-2.171-5.023-3.485-7.947-4.371c-5.024-1.523-10.63-1.858-15.401,0.332c-4.771,2.19-8.388,7.336-7.671,12.537
				c0.553,4.014,3.521,7.392,7.071,9.344c3.55,1.953,7.637,2.675,11.665,3.113c4.028,0.438,8.107,0.625,12.032,1.628
				c3.146,0.804,6.361,2.303,7.979,5.119c1.908,3.322,1.011,7.733-1.368,10.736c-2.379,3.003-5.964,4.808-9.596,6.027
				c-14.983,5.027-34.356,1.342-44.202-11.738c-3.466-4.604-4.579-10.276-2.383-15.698c1.406-3.47,4.014-6.373,7.089-8.507
				c3.639-2.526,8.029-4.252,12.4-4.948c6.056-0.963,12.482,0.181,17.66,3.466c5.539,3.515,9.596,9.818,10.576,16.29
				c0.716,4.728-2.634,13.456,3.057,16.071c0.228,0.105,0.464,0.193,0.703,0.27c12.475,3.996,16.836-15.015,12.294-23.183
				c-1.947-3.503-5.103-6.321-8.723-8.012c-4.463-2.086-9.909-2.894-12.891-6.814c-1.732-2.278-2.286-5.236-2.451-8.093
				c-0.186-3.224,0.243-6.852,2.72-8.924"/>
		</g>
	</g>
</g>
</svg>
