<svg xmlns="http://www.w3.org/2000/svg" xmlns:xlink="http://www.w3.org/1999/xlink" width="1024" zoomAndPan="magnify" viewBox="0 0 768 767.999994" height="1024" preserveAspectRatio="xMidYMid meet" version="1.0"><defs><clipPath id="4fe0538ae4"><path d="M 68.523438 68.523438 L 699.476562 68.523438 L 699.476562 699.476562 L 68.523438 699.476562 Z M 68.523438 68.523438 " clip-rule="nonzero"/></clipPath><clipPath id="f3a1a0bdd3"><path d="M 384 68.523438 C 209.765625 68.523438 68.523438 209.765625 68.523438 384 C 68.523438 558.234375 209.765625 699.476562 384 699.476562 C 558.234375 699.476562 699.476562 558.234375 699.476562 384 C 699.476562 209.765625 558.234375 68.523438 384 68.523438 Z M 384 68.523438 " clip-rule="nonzero"/></clipPath><clipPath id="bdaf272f06"><path d="M 0.523438 0.523438 L 631.476562 0.523438 L 631.476562 631.476562 L 0.523438 631.476562 Z M 0.523438 0.523438 " clip-rule="nonzero"/></clipPath><clipPath id="22966ecd56"><path d="M 316 0.523438 C 141.765625 0.523438 0.523438 141.765625 0.523438 316 C 0.523438 490.234375 141.765625 631.476562 316 631.476562 C 490.234375 631.476562 631.476562 490.234375 631.476562 316 C 631.476562 141.765625 490.234375 0.523438 316 0.523438 Z M 316 0.523438 " clip-rule="nonzero"/></clipPath><clipPath id="5b82d5ceff"><rect x="0" width="632" y="0" height="632"/></clipPath><clipPath id="554cda91f3"><path d="M 68.523438 68.523438 L 699.273438 68.523438 L 699.273438 699.273438 L 68.523438 699.273438 Z M 68.523438 68.523438 " clip-rule="nonzero"/></clipPath><clipPath id="23ba0c99bb"><path d="M 384 68.523438 C 209.765625 68.523438 68.523438 209.765625 68.523438 384 C 68.523438 558.230469 209.765625 699.472656 384 699.472656 C 558.230469 699.472656 699.472656 558.230469 699.472656 384 C 699.472656 209.765625 558.230469 68.523438 384 68.523438 Z M 384 68.523438 " clip-rule="nonzero"/></clipPath><clipPath id="5e9701964e"><path d="M 185 165 L 583 165 L 583 605.1875 L 185 605.1875 Z M 185 165 " clip-rule="nonzero"/></clipPath></defs><g clip-path="url(#4fe0538ae4)"><g clip-path="url(#f3a1a0bdd3)"><g transform="matrix(1, 0, 0, 1, 68, 68)"><g clip-path="url(#5b82d5ceff)"><g clip-path="url(#bdaf272f06)"><g clip-path="url(#22966ecd56)"><path fill="#d9d9d9" d="M 0.523438 0.523438 L 631.476562 0.523438 L 631.476562 631.476562 L 0.523438 631.476562 Z M 0.523438 0.523438 " fill-opacity="1" fill-rule="nonzero"/></g></g></g></g></g></g><g clip-path="url(#554cda91f3)"><g clip-path="url(#23ba0c99bb)"><path stroke-linecap="butt" transform="matrix(0.75, 0, 0, 0.75, 68.524137, 68.524154)" fill="none" stroke-linejoin="miter" d="M 420.634505 -0.000955613 C 188.321993 -0.000955613 -0.000932946 188.32197 -0.000932946 420.634482 C -0.000932946 652.941785 188.321993 841.264711 420.634505 841.264711 C 652.941808 841.264711 841.264734 652.941785 841.264734 420.634482 C 841.264734 188.32197 652.941808 -0.000955613 420.634505 -0.000955613 Z M 420.634505 -0.000955613 " stroke="#ffffff" stroke-width="8" stroke-opacity="1" stroke-miterlimit="4"/></g></g><g clip-path="url(#5e9701964e)"><path fill="#ffffff" d="M 579.761719 478.894531 L 548.941406 448.070312 C 548.335938 447.5 547.707031 446.964844 547.046875 446.460938 C 546.390625 445.957031 545.707031 445.484375 545 445.050781 C 544.292969 444.617188 543.566406 444.21875 542.820312 443.855469 C 542.070312 443.496094 541.308594 443.175781 540.527344 442.890625 C 539.746094 442.609375 538.957031 442.367188 538.152344 442.164062 C 537.347656 441.960938 536.53125 441.800781 535.710938 441.679688 C 534.890625 441.5625 534.066406 441.484375 533.234375 441.449219 C 532.40625 441.414062 531.578125 441.421875 530.75 441.472656 C 529.921875 441.519531 529.097656 441.613281 528.277344 441.746094 C 527.460938 441.878906 526.648438 442.054688 525.847656 442.269531 C 525.046875 442.484375 524.257812 442.742188 523.484375 443.039062 C 522.710938 443.335938 521.953125 443.667969 521.210938 444.042969 C 520.46875 444.417969 519.75 444.828125 519.050781 445.273438 C 518.351562 445.722656 517.675781 446.203125 517.027344 446.71875 C 516.378906 447.234375 515.753906 447.78125 515.160156 448.363281 C 514.566406 448.941406 514.003906 449.546875 513.472656 450.1875 L 493.71875 438.496094 C 492.757812 437.933594 491.84375 437.304688 490.972656 436.617188 C 490.101562 435.925781 489.285156 435.179688 488.515625 434.375 C 487.75 433.570312 487.042969 432.71875 486.394531 431.816406 C 485.746094 430.914062 485.160156 429.96875 484.644531 428.988281 C 484.125 428.003906 483.679688 426.988281 483.300781 425.945312 C 482.925781 424.898438 482.621094 423.832031 482.390625 422.746094 C 482.164062 421.65625 482.011719 420.558594 481.933594 419.449219 C 481.859375 418.339844 481.859375 417.234375 481.9375 416.125 L 485.433594 364.171875 C 485.851562 357.855469 485.578125 351.570312 484.625 345.316406 C 483.667969 339.0625 482.050781 332.980469 479.765625 327.082031 L 423.039062 181.015625 C 422.863281 180.554688 422.671875 180.097656 422.46875 179.644531 C 422.265625 179.195312 422.046875 178.75 421.816406 178.3125 C 421.585938 177.875 421.339844 177.441406 421.082031 177.019531 C 420.824219 176.597656 420.554688 176.183594 420.273438 175.777344 C 419.988281 175.371094 419.691406 174.976562 419.382812 174.589844 C 419.074219 174.199219 418.757812 173.824219 418.425781 173.457031 C 418.09375 173.089844 417.75 172.730469 417.398438 172.382812 C 417.042969 172.039062 416.679688 171.703125 416.304688 171.378906 C 415.929688 171.054688 415.546875 170.742188 415.152344 170.441406 C 414.757812 170.144531 414.355469 169.855469 413.945312 169.582031 C 413.53125 169.304688 413.113281 169.042969 412.683594 168.792969 C 412.257812 168.546875 411.824219 168.308594 411.378906 168.085938 C 410.9375 167.863281 410.488281 167.65625 410.035156 167.460938 C 409.578125 167.269531 409.117188 167.089844 408.652344 166.921875 C 408.183594 166.757812 407.714844 166.605469 407.238281 166.46875 C 406.761719 166.332031 406.28125 166.210938 405.796875 166.105469 C 405.316406 165.996094 404.828125 165.90625 404.339844 165.828125 C 403.851562 165.75 403.359375 165.691406 402.867188 165.644531 C 402.375 165.597656 401.878906 165.566406 401.386719 165.550781 C 400.890625 165.535156 400.394531 165.535156 399.902344 165.550781 C 399.40625 165.566406 398.914062 165.59375 398.417969 165.640625 C 397.925781 165.6875 397.433594 165.746094 396.945312 165.824219 C 396.457031 165.898438 395.96875 165.992188 395.488281 166.097656 C 395.003906 166.203125 394.523438 166.324219 394.046875 166.460938 C 393.570312 166.59375 393.101562 166.746094 392.632812 166.910156 C 392.167969 167.078125 391.707031 167.253906 391.25 167.449219 C 390.792969 167.644531 390.34375 167.851562 389.902344 168.070312 C 389.460938 168.292969 389.023438 168.527344 388.597656 168.777344 C 388.167969 169.027344 387.746094 169.289062 387.335938 169.5625 C 386.925781 169.835938 386.519531 170.125 386.125 170.421875 C 385.734375 170.722656 385.347656 171.035156 384.972656 171.355469 C 384.597656 171.679688 384.234375 172.015625 383.878906 172.359375 C 380.980469 169.347656 377.53125 167.238281 373.527344 166.035156 C 372.808594 165.828125 372.082031 165.65625 371.34375 165.515625 C 370.609375 165.375 369.871094 165.269531 369.125 165.195312 C 368.382812 165.125 367.636719 165.085938 366.886719 165.082031 C 366.140625 165.082031 365.390625 165.113281 364.648438 165.175781 C 363.902344 165.242188 363.160156 165.34375 362.425781 165.476562 C 361.6875 165.609375 360.960938 165.777344 360.242188 165.980469 C 359.519531 166.179688 358.808594 166.414062 358.109375 166.683594 C 357.414062 166.949219 356.726562 167.246094 356.054688 167.578125 C 355.382812 167.90625 354.730469 168.269531 354.089844 168.660156 C 353.453125 169.050781 352.835938 169.46875 352.234375 169.914062 C 351.636719 170.363281 351.058594 170.835938 350.503906 171.339844 C 349.945312 171.839844 349.414062 172.363281 348.910156 172.914062 C 348.402344 173.464844 347.921875 174.035156 347.464844 174.632812 C 347.011719 175.226562 346.585938 175.839844 346.1875 176.472656 C 345.789062 177.105469 345.421875 177.757812 345.085938 178.425781 C 344.746094 179.09375 344.441406 179.773438 344.167969 180.472656 L 287.4375 326.542969 C 276.828125 348.851562 284.535156 391.746094 285.269531 415.585938 C 285.347656 416.695312 285.347656 417.804688 285.273438 418.914062 C 285.195312 420.023438 285.042969 421.121094 284.8125 422.207031 C 284.585938 423.296875 284.28125 424.363281 283.90625 425.410156 C 283.527344 426.453125 283.082031 427.46875 282.5625 428.453125 C 282.046875 429.4375 281.460938 430.378906 280.8125 431.28125 C 280.164062 432.183594 279.457031 433.039062 278.691406 433.84375 C 277.921875 434.648438 277.101562 435.394531 276.230469 436.085938 C 275.359375 436.777344 274.445312 437.402344 273.488281 437.964844 L 253.738281 449.652344 C 253.21875 449.003906 252.664062 448.378906 252.074219 447.789062 C 251.488281 447.195312 250.871094 446.632812 250.226562 446.105469 C 249.578125 445.578125 248.90625 445.082031 248.210938 444.625 C 247.511719 444.167969 246.792969 443.746094 246.050781 443.363281 C 245.308594 442.980469 244.550781 442.636719 243.773438 442.332031 C 242.996094 442.027344 242.207031 441.765625 241.402344 441.542969 C 240.597656 441.320312 239.78125 441.144531 238.957031 441.007812 C 238.136719 440.871094 237.308594 440.777344 236.472656 440.726562 C 235.640625 440.679688 234.808594 440.671875 233.972656 440.707031 C 233.140625 440.746094 232.308594 440.828125 231.484375 440.949219 C 230.660156 441.074219 229.84375 441.242188 229.035156 441.449219 C 228.226562 441.660156 227.433594 441.910156 226.648438 442.203125 C 225.867188 442.496094 225.105469 442.828125 224.355469 443.199219 C 223.609375 443.570312 222.882812 443.980469 222.179688 444.429688 C 221.476562 444.875 220.796875 445.359375 220.144531 445.878906 C 219.488281 446.398438 218.863281 446.949219 218.269531 447.53125 L 187.441406 478.359375 C 187.078125 478.722656 186.75 479.121094 186.464844 479.550781 C 186.179688 479.976562 185.9375 480.429688 185.738281 480.90625 C 185.539062 481.386719 185.390625 481.875 185.289062 482.382812 C 185.191406 482.890625 185.140625 483.398438 185.140625 483.917969 C 185.140625 484.433594 185.191406 484.945312 185.289062 485.449219 C 185.390625 485.957031 185.539062 486.449219 185.738281 486.925781 C 185.9375 487.402344 186.179688 487.855469 186.464844 488.285156 C 186.75 488.714844 187.078125 489.109375 187.441406 489.476562 L 300.433594 602.464844 C 300.796875 602.828125 301.195312 603.15625 301.625 603.441406 C 302.054688 603.730469 302.503906 603.972656 302.984375 604.167969 C 303.460938 604.367188 303.949219 604.515625 304.457031 604.617188 C 304.964844 604.71875 305.476562 604.769531 305.992188 604.769531 C 306.507812 604.769531 307.019531 604.71875 307.523438 604.617188 C 308.03125 604.515625 308.523438 604.367188 309 604.167969 C 309.476562 603.972656 309.929688 603.730469 310.359375 603.441406 C 310.789062 603.15625 311.183594 602.828125 311.550781 602.464844 L 342.375 571.640625 C 342.917969 571.089844 343.433594 570.519531 343.917969 569.921875 C 344.40625 569.320312 344.863281 568.699219 345.289062 568.058594 C 345.714844 567.414062 346.109375 566.753906 346.46875 566.070312 C 346.832031 565.390625 347.160156 564.691406 347.453125 563.980469 C 347.746094 563.265625 348.003906 562.539062 348.226562 561.800781 C 348.449219 561.0625 348.636719 560.316406 348.785156 559.558594 C 348.933594 558.800781 349.046875 558.039062 349.121094 557.273438 C 349.199219 556.503906 349.234375 555.734375 349.234375 554.964844 C 349.234375 554.191406 349.199219 553.421875 349.121094 552.65625 C 349.046875 551.886719 348.933594 551.125 348.785156 550.367188 C 348.636719 549.613281 348.449219 548.863281 348.226562 548.125 C 348.003906 547.386719 347.746094 546.660156 347.453125 545.949219 C 347.160156 545.234375 346.832031 544.539062 346.46875 543.855469 C 346.109375 543.175781 345.714844 542.511719 345.289062 541.871094 C 344.863281 541.226562 344.40625 540.605469 343.917969 540.007812 C 343.433594 539.410156 342.917969 538.835938 342.375 538.289062 L 339.238281 535.152344 C 346.769531 529.195312 376.074219 508.015625 383.472656 490.304688 C 390.703125 508.273438 420.28125 529.585938 427.964844 535.691406 C 426.449219 536.867188 425.078125 538.195312 423.855469 539.675781 C 422.632812 541.15625 421.585938 542.753906 420.71875 544.46875 C 419.851562 546.179688 419.179688 547.96875 418.710938 549.828125 C 418.238281 551.691406 417.976562 553.582031 417.925781 555.5 C 417.921875 557.050781 418.070312 558.585938 418.371094 560.105469 C 418.667969 561.625 419.117188 563.097656 419.707031 564.53125 C 420.300781 565.960938 421.027344 567.320312 421.890625 568.609375 C 422.753906 569.894531 423.734375 571.085938 424.832031 572.175781 L 455.65625 603 C 456.019531 603.367188 456.417969 603.691406 456.847656 603.980469 C 457.277344 604.265625 457.730469 604.507812 458.207031 604.707031 C 458.683594 604.902344 459.175781 605.054688 459.679688 605.152344 C 460.1875 605.253906 460.699219 605.304688 461.214844 605.304688 C 461.730469 605.304688 462.242188 605.253906 462.75 605.152344 C 463.253906 605.054688 463.746094 604.902344 464.222656 604.707031 C 464.699219 604.507812 465.152344 604.265625 465.582031 603.980469 C 466.011719 603.691406 466.40625 603.367188 466.773438 603 L 579.761719 490.011719 C 580.128906 489.648438 580.453125 489.25 580.742188 488.820312 C 581.027344 488.390625 581.269531 487.9375 581.46875 487.460938 C 581.664062 486.984375 581.816406 486.492188 581.914062 485.988281 C 582.015625 485.480469 582.066406 484.96875 582.066406 484.453125 C 582.066406 483.9375 582.015625 483.425781 581.914062 482.921875 C 581.816406 482.414062 581.664062 481.921875 581.46875 481.445312 C 581.269531 480.96875 581.027344 480.515625 580.742188 480.085938 C 580.453125 479.65625 580.128906 479.261719 579.761719 478.894531 Z M 383.152344 384.660156 C 382.0625 379.585938 381.550781 374.457031 381.617188 369.265625 C 381.6875 364.074219 382.335938 358.957031 383.5625 353.914062 C 384.820312 359.042969 385.488281 364.246094 385.570312 369.527344 C 385.652344 374.804688 385.148438 380.027344 384.050781 385.191406 C 383.621094 387.550781 383.550781 386.226562 383.152344 384.660156 Z M 383.855469 283.546875 C 382.160156 281.78125 380.257812 280.277344 378.148438 279.035156 C 376.035156 277.792969 373.796875 276.863281 371.429688 276.238281 L 383.539062 223.75 L 395.777344 276.773438 C 393.527344 277.363281 391.394531 278.230469 389.371094 279.378906 C 387.351562 280.527344 385.511719 281.917969 383.855469 283.546875 Z M 331.257812 560.523438 L 305.992188 585.789062 L 204.117188 483.917969 L 229.386719 458.648438 C 229.75 458.285156 230.148438 457.960938 230.578125 457.675781 C 231.007812 457.390625 231.460938 457.148438 231.9375 456.953125 C 232.414062 456.757812 232.90625 456.609375 233.410156 456.507812 C 233.917969 456.40625 234.429688 456.359375 234.945312 456.359375 C 235.460938 456.359375 235.96875 456.40625 236.476562 456.507812 C 236.980469 456.609375 237.472656 456.757812 237.949219 456.953125 C 238.425781 457.148438 238.878906 457.390625 239.308594 457.675781 C 239.738281 457.960938 240.136719 458.285156 240.503906 458.648438 L 331.253906 549.40625 C 331.617188 549.773438 331.941406 550.167969 332.226562 550.597656 C 332.511719 551.027344 332.75 551.480469 332.945312 551.957031 C 333.144531 552.433594 333.292969 552.925781 333.390625 553.433594 C 333.492188 553.9375 333.542969 554.449219 333.542969 554.964844 C 333.542969 555.480469 333.492188 555.988281 333.390625 556.496094 C 333.292969 557 333.144531 557.492188 332.949219 557.96875 C 332.753906 558.445312 332.511719 558.898438 332.226562 559.328125 C 331.945312 559.757812 331.621094 560.15625 331.257812 560.523438 Z M 360.914062 495.769531 C 350.730469 506.085938 339.722656 515.429688 327.886719 523.800781 L 265.214844 461.128906 L 281.496094 451.496094 C 283.078125 450.5625 284.589844 449.527344 286.027344 448.386719 C 287.46875 447.246094 288.820312 446.011719 290.089844 444.683594 C 291.355469 443.355469 292.527344 441.945312 293.597656 440.453125 C 294.667969 438.964844 295.632812 437.40625 296.488281 435.78125 C 297.34375 434.15625 298.082031 432.480469 298.703125 430.753906 C 299.328125 429.023438 299.828125 427.261719 300.203125 425.464844 C 300.582031 423.667969 300.832031 421.855469 300.960938 420.023438 C 301.085938 418.191406 301.082031 416.359375 300.953125 414.527344 L 297.457031 362.582031 C 297.117188 357.414062 297.339844 352.273438 298.121094 347.15625 C 298.902344 342.039062 300.226562 337.066406 302.09375 332.238281 L 358.824219 186.167969 C 359.023438 185.683594 359.261719 185.222656 359.546875 184.785156 C 359.832031 184.34375 360.152344 183.9375 360.511719 183.554688 C 360.871094 183.175781 361.265625 182.835938 361.6875 182.527344 C 362.109375 182.222656 362.558594 181.957031 363.03125 181.730469 C 363.503906 181.507812 363.992188 181.328125 364.496094 181.195312 C 365.003906 181.0625 365.515625 180.976562 366.039062 180.941406 C 366.558594 180.902344 367.078125 180.914062 367.597656 180.972656 C 368.117188 181.027344 368.628906 181.136719 369.128906 181.289062 C 369.628906 181.441406 370.109375 181.636719 370.574219 181.878906 C 371.035156 182.121094 371.472656 182.40625 371.882812 182.726562 C 372.292969 183.050781 372.671875 183.410156 373.015625 183.800781 C 373.359375 184.195312 373.667969 184.617188 373.933594 185.066406 C 374.199219 185.515625 374.421875 185.988281 374.601562 186.476562 C 374.78125 186.96875 374.914062 187.472656 375 187.988281 C 375.085938 188.503906 375.125 189.023438 375.113281 189.546875 C 375.101562 190.066406 375.042969 190.585938 374.9375 191.097656 L 355.121094 276.976562 C 353.222656 277.683594 351.429688 278.59375 349.738281 279.710938 C 348.046875 280.828125 346.503906 282.121094 345.109375 283.589844 C 343.714844 285.054688 342.503906 286.664062 341.472656 288.40625 C 340.445312 290.152344 339.625 291.988281 339.015625 293.921875 L 318.617188 357.84375 C 318.457031 358.335938 318.347656 358.839844 318.289062 359.351562 C 318.230469 359.867188 318.222656 360.382812 318.265625 360.894531 C 318.308594 361.410156 318.398438 361.917969 318.542969 362.414062 C 318.683594 362.910156 318.875 363.390625 319.109375 363.851562 C 319.347656 364.308594 319.625 364.742188 319.949219 365.144531 C 320.269531 365.550781 320.628906 365.921875 321.023438 366.253906 C 321.417969 366.589844 321.84375 366.878906 322.292969 367.128906 C 322.746094 367.378906 323.21875 367.585938 323.710938 367.742188 C 324.203125 367.898438 324.707031 368.003906 325.222656 368.0625 C 325.734375 368.121094 326.25 368.128906 326.765625 368.085938 C 327.28125 368.039062 327.785156 367.945312 328.28125 367.804688 C 328.78125 367.660156 329.257812 367.46875 329.714844 367.230469 C 330.175781 366.992188 330.605469 366.710938 331.011719 366.390625 C 331.414062 366.066406 331.78125 365.707031 332.117188 365.3125 C 332.449219 364.917969 332.738281 364.492188 332.988281 364.039062 C 333.238281 363.585938 333.441406 363.113281 333.59375 362.621094 L 353.996094 298.695312 C 354.214844 298.046875 354.492188 297.425781 354.828125 296.828125 C 355.164062 296.230469 355.550781 295.671875 355.988281 295.144531 C 356.429688 294.621094 356.914062 294.140625 357.441406 293.703125 C 357.96875 293.265625 358.53125 292.882812 359.132812 292.550781 C 359.730469 292.21875 360.355469 291.945312 361.003906 291.730469 C 361.65625 291.515625 362.320312 291.359375 362.996094 291.265625 C 363.675781 291.171875 364.355469 291.140625 365.042969 291.175781 C 365.726562 291.207031 366.402344 291.304688 367.066406 291.460938 C 367.734375 291.617188 368.378906 291.835938 369.003906 292.113281 C 369.632812 292.390625 370.226562 292.722656 370.792969 293.109375 C 371.355469 293.496094 371.882812 293.933594 372.363281 294.417969 C 372.847656 294.902344 373.285156 295.425781 373.671875 295.992188 C 374.058594 296.558594 374.390625 297.152344 374.667969 297.777344 C 374.945312 298.40625 375.160156 299.050781 375.320312 299.71875 C 375.476562 300.382812 375.570312 301.058594 375.601562 301.742188 C 375.636719 302.429688 375.605469 303.109375 375.511719 303.789062 L 366.621094 360.453125 C 363.132812 390.386719 375.992188 406.175781 375.675781 444.605469 C 376.027344 463.453125 372.738281 484.835938 360.914062 495.769531 Z M 406.289062 496.308594 C 394.359375 485.265625 391.089844 463.59375 391.539062 444.554688 C 391.347656 406.363281 404.070312 390.792969 400.585938 360.992188 L 391.695312 304.324219 C 391.601562 303.644531 391.570312 302.964844 391.601562 302.28125 C 391.632812 301.597656 391.730469 300.921875 391.886719 300.253906 C 392.042969 299.585938 392.261719 298.941406 392.535156 298.3125 C 392.8125 297.6875 393.144531 297.09375 393.53125 296.527344 C 393.917969 295.960938 394.355469 295.4375 394.839844 294.953125 C 395.324219 294.46875 395.847656 294.03125 396.414062 293.644531 C 396.976562 293.257812 397.574219 292.925781 398.199219 292.648438 C 398.824219 292.371094 399.472656 292.152344 400.136719 291.996094 C 400.804688 291.835938 401.480469 291.742188 402.164062 291.707031 C 402.847656 291.675781 403.53125 291.707031 404.207031 291.800781 C 404.886719 291.894531 405.550781 292.046875 406.203125 292.265625 C 406.851562 292.480469 407.476562 292.753906 408.074219 293.085938 C 408.675781 293.417969 409.238281 293.800781 409.765625 294.238281 C 410.292969 294.675781 410.777344 295.15625 411.21875 295.679688 C 411.65625 296.207031 412.042969 296.769531 412.378906 297.367188 C 412.714844 297.964844 412.992188 298.585938 413.210938 299.234375 L 433.609375 363.148438 C 433.765625 363.640625 433.96875 364.117188 434.21875 364.570312 C 434.464844 365.023438 434.757812 365.445312 435.089844 365.839844 C 435.421875 366.238281 435.792969 366.597656 436.195312 366.917969 C 436.597656 367.242188 437.03125 367.523438 437.488281 367.761719 C 437.949219 368 438.425781 368.1875 438.921875 368.332031 C 439.417969 368.476562 439.925781 368.570312 440.441406 368.613281 C 440.957031 368.65625 441.46875 368.648438 441.984375 368.59375 C 442.496094 368.535156 443 368.425781 443.492188 368.269531 C 443.984375 368.113281 444.457031 367.910156 444.910156 367.660156 C 445.363281 367.410156 445.785156 367.117188 446.183594 366.785156 C 446.578125 366.449219 446.933594 366.082031 447.257812 365.675781 C 447.578125 365.269531 447.859375 364.839844 448.09375 364.378906 C 448.332031 363.917969 448.519531 363.441406 448.664062 362.945312 C 448.804688 362.449219 448.898438 361.941406 448.941406 361.425781 C 448.984375 360.910156 448.972656 360.394531 448.914062 359.882812 C 448.855469 359.367188 448.746094 358.867188 448.589844 358.375 L 428.191406 294.457031 C 427.582031 292.527344 426.761719 290.691406 425.730469 288.945312 C 424.703125 287.203125 423.492188 285.597656 422.097656 284.128906 C 420.699219 282.664062 419.160156 281.371094 417.46875 280.253906 C 415.777344 279.140625 413.984375 278.230469 412.089844 277.523438 L 392.265625 191.648438 C 392.160156 191.136719 392.101562 190.621094 392.089844 190.097656 C 392.078125 189.574219 392.113281 189.054688 392.199219 188.535156 C 392.285156 188.019531 392.417969 187.515625 392.59375 187.023438 C 392.773438 186.53125 392.996094 186.0625 393.261719 185.609375 C 393.527344 185.160156 393.832031 184.738281 394.179688 184.34375 C 394.523438 183.949219 394.898438 183.589844 395.3125 183.265625 C 395.722656 182.941406 396.160156 182.660156 396.621094 182.417969 C 397.085938 182.175781 397.566406 181.976562 398.066406 181.824219 C 398.570312 181.667969 399.078125 181.5625 399.597656 181.503906 C 400.117188 181.445312 400.640625 181.433594 401.160156 181.472656 C 401.683594 181.511719 402.199219 181.59375 402.703125 181.730469 C 403.210938 181.863281 403.699219 182.039062 404.171875 182.265625 C 404.644531 182.488281 405.09375 182.753906 405.515625 183.0625 C 405.941406 183.367188 406.332031 183.710938 406.691406 184.089844 C 407.050781 184.472656 407.375 184.878906 407.660156 185.320312 C 407.941406 185.757812 408.183594 186.222656 408.382812 186.707031 L 465.109375 332.777344 C 466.976562 337.605469 468.300781 342.574219 469.082031 347.691406 C 469.867188 352.808594 470.085938 357.945312 469.75 363.109375 L 466.25 415.066406 C 466.121094 416.894531 466.121094 418.726562 466.246094 420.558594 C 466.371094 422.390625 466.625 424.207031 467 426 C 467.378906 427.796875 467.878906 429.558594 468.5 431.289062 C 469.125 433.015625 469.863281 434.691406 470.71875 436.316406 C 471.574219 437.941406 472.535156 439.496094 473.609375 440.988281 C 474.679688 442.480469 475.851562 443.886719 477.117188 445.214844 C 478.386719 446.542969 479.738281 447.777344 481.175781 448.917969 C 482.617188 450.058594 484.128906 451.09375 485.710938 452.023438 L 501.996094 461.660156 L 439.316406 524.339844 C 427.484375 515.964844 416.476562 506.621094 406.289062 496.308594 Z M 461.214844 586.328125 L 435.953125 561.058594 C 435.210938 560.324219 434.644531 559.476562 434.242188 558.511719 C 433.84375 557.546875 433.644531 556.542969 433.648438 555.5 C 433.648438 553.398438 526.707031 459.1875 526.707031 459.1875 C 527.074219 458.824219 527.472656 458.5 527.898438 458.214844 C 528.328125 457.929688 528.78125 457.6875 529.257812 457.492188 C 529.734375 457.296875 530.226562 457.148438 530.734375 457.046875 C 531.238281 456.949219 531.75 456.898438 532.265625 456.898438 C 532.78125 456.898438 533.289062 456.949219 533.796875 457.046875 C 534.300781 457.148438 534.792969 457.296875 535.269531 457.492188 C 535.746094 457.6875 536.199219 457.929688 536.628906 458.214844 C 537.058594 458.5 537.453125 458.824219 537.820312 459.1875 L 563.085938 484.453125 Z M 461.214844 586.328125 " fill-opacity="1" fill-rule="nonzero"/></g></svg>