<svg xmlns="http://www.w3.org/2000/svg" xmlns:xlink="http://www.w3.org/1999/xlink" width="1024" zoomAndPan="magnify" viewBox="0 0 768 767.999994" height="1024" preserveAspectRatio="xMidYMid meet" version="1.0"><defs><clipPath id="0ababa7dd2"><path d="M 54.277344 59.902344 L 713.527344 59.902344 L 713.527344 719.152344 L 54.277344 719.152344 Z M 54.277344 59.902344 " clip-rule="nonzero"/></clipPath><clipPath id="27b4820ef3"><path d="M 134 108 L 634 108 L 634 662.390625 L 134 662.390625 Z M 134 108 " clip-rule="nonzero"/></clipPath></defs><path fill="#d9d9d9" d="M 711.882812 389.585938 C 711.882812 394.953125 711.75 400.316406 711.488281 405.675781 C 711.222656 411.035156 710.828125 416.386719 710.304688 421.726562 C 709.777344 427.066406 709.121094 432.394531 708.332031 437.703125 C 707.546875 443.011719 706.628906 448.296875 705.582031 453.558594 C 704.535156 458.824219 703.359375 464.058594 702.054688 469.265625 C 700.75 474.46875 699.320312 479.640625 697.761719 484.777344 C 696.203125 489.910156 694.519531 495.007812 692.714844 500.058594 C 690.90625 505.113281 688.972656 510.117188 686.921875 515.078125 C 684.867188 520.035156 682.691406 524.9375 680.398438 529.789062 C 678.105469 534.640625 675.691406 539.433594 673.160156 544.167969 C 670.632812 548.902344 667.988281 553.570312 665.226562 558.171875 C 662.46875 562.773438 659.597656 567.308594 656.617188 571.769531 C 653.636719 576.234375 650.546875 580.617188 647.347656 584.929688 C 644.152344 589.242188 640.851562 593.46875 637.445312 597.617188 C 634.042969 601.765625 630.539062 605.828125 626.933594 609.804688 C 623.328125 613.78125 619.628906 617.667969 615.835938 621.464844 C 612.039062 625.257812 608.15625 628.957031 604.179688 632.5625 C 600.203125 636.164062 596.140625 639.671875 591.992188 643.074219 C 587.84375 646.480469 583.613281 649.78125 579.300781 652.976562 C 574.992188 656.175781 570.605469 659.261719 566.144531 662.246094 C 561.679688 665.226562 557.148438 668.097656 552.542969 670.855469 C 547.941406 673.613281 543.273438 676.257812 538.539062 678.789062 C 533.808594 681.320312 529.015625 683.730469 524.164062 686.027344 C 519.3125 688.320312 514.40625 690.496094 509.449219 692.546875 C 504.492188 694.601562 499.484375 696.53125 494.433594 698.339844 C 489.378906 700.148438 484.285156 701.832031 479.148438 703.390625 C 474.011719 704.949219 468.84375 706.378906 463.636719 707.683594 C 458.429688 708.988281 453.195312 710.164062 447.933594 711.210938 C 442.667969 712.257812 437.382812 713.171875 432.074219 713.960938 C 426.765625 714.75 421.441406 715.40625 416.097656 715.929688 C 410.757812 716.457031 405.40625 716.851562 400.046875 717.113281 C 394.6875 717.378906 389.324219 717.511719 383.957031 717.511719 C 378.589844 717.511719 373.226562 717.378906 367.867188 717.113281 C 362.507812 716.851562 357.15625 716.457031 351.816406 715.929688 C 346.472656 715.40625 341.148438 714.75 335.839844 713.960938 C 330.53125 713.171875 325.246094 712.257812 319.980469 711.210938 C 314.71875 710.164062 309.484375 708.988281 304.277344 707.683594 C 299.070312 706.378906 293.902344 704.949219 288.765625 703.390625 C 283.628906 701.832031 278.535156 700.148438 273.484375 698.339844 C 268.429688 696.53125 263.421875 694.601562 258.464844 692.546875 C 253.507812 690.496094 248.601562 688.320312 243.75 686.027344 C 238.898438 683.730469 234.105469 681.320312 229.375 678.789062 C 224.640625 676.257812 219.972656 673.613281 215.371094 670.855469 C 210.765625 668.097656 206.234375 665.226562 201.773438 662.246094 C 197.308594 659.261719 192.921875 656.175781 188.613281 652.976562 C 184.300781 649.78125 180.070312 646.480469 175.921875 643.074219 C 171.773438 639.667969 167.710938 636.164062 163.734375 632.5625 C 159.757812 628.957031 155.875 625.257812 152.078125 621.464844 C 148.285156 617.667969 144.585938 613.78125 140.980469 609.804688 C 137.375 605.828125 133.871094 601.765625 130.46875 597.617188 C 127.0625 593.46875 123.761719 589.242188 120.566406 584.929688 C 117.367188 580.617188 114.277344 576.234375 111.296875 571.769531 C 108.316406 567.308594 105.445312 562.773438 102.6875 558.171875 C 99.925781 553.570312 97.28125 548.902344 94.753906 544.167969 C 92.222656 539.433594 89.8125 534.640625 87.515625 529.789062 C 85.222656 524.9375 83.046875 520.035156 80.992188 515.078125 C 78.941406 510.117188 77.007812 505.113281 75.199219 500.058594 C 73.394531 495.007812 71.710938 489.914062 70.152344 484.777344 C 68.59375 479.640625 67.164062 474.46875 65.859375 469.265625 C 64.554688 464.058594 63.378906 458.824219 62.332031 453.558594 C 61.285156 448.296875 60.367188 443.011719 59.582031 437.703125 C 58.792969 432.394531 58.136719 427.066406 57.609375 421.726562 C 57.085938 416.386719 56.691406 411.035156 56.425781 405.675781 C 56.164062 400.316406 56.03125 394.953125 56.03125 389.585938 C 56.03125 384.21875 56.164062 378.855469 56.425781 373.496094 C 56.691406 368.132812 57.085938 362.785156 57.609375 357.441406 C 58.136719 352.101562 58.792969 346.777344 59.582031 341.46875 C 60.367188 336.160156 61.285156 330.875 62.332031 325.609375 C 63.378906 320.347656 64.554688 315.113281 65.859375 309.90625 C 67.164062 304.699219 68.59375 299.527344 70.152344 294.394531 C 71.710938 289.257812 73.394531 284.164062 75.199219 279.109375 C 77.007812 274.058594 78.941406 269.050781 80.992188 264.09375 C 83.046875 259.136719 85.222656 254.230469 87.515625 249.378906 C 89.8125 244.527344 92.222656 239.734375 94.753906 235 C 97.28125 230.269531 99.925781 225.601562 102.6875 220.996094 C 105.445312 216.394531 108.316406 211.863281 111.296875 207.398438 C 114.277344 202.9375 117.367188 198.550781 120.566406 194.238281 C 123.761719 189.929688 127.0625 185.699219 130.46875 181.550781 C 133.871094 177.402344 137.375 173.339844 140.980469 169.363281 C 144.585938 165.386719 148.285156 161.5 152.078125 157.707031 C 155.875 153.910156 159.757812 150.210938 163.734375 146.609375 C 167.710938 143.003906 171.773438 139.5 175.921875 136.09375 C 180.070312 132.691406 184.300781 129.390625 188.613281 126.191406 C 192.921875 122.996094 197.308594 119.90625 201.773438 116.925781 C 206.234375 113.941406 210.765625 111.074219 215.371094 108.3125 C 219.972656 105.554688 224.640625 102.910156 229.375 100.378906 C 234.105469 97.851562 238.898438 95.4375 243.75 93.144531 C 248.601562 90.847656 253.507812 88.675781 258.464844 86.621094 C 263.421875 84.566406 268.429688 82.636719 273.484375 80.828125 C 278.535156 79.019531 283.628906 77.335938 288.765625 75.78125 C 293.902344 74.222656 299.070312 72.789062 304.277344 71.488281 C 309.484375 70.183594 314.71875 69.007812 319.980469 67.960938 C 325.246094 66.914062 330.53125 65.996094 335.839844 65.207031 C 341.148438 64.421875 346.472656 63.765625 351.816406 63.238281 C 357.15625 62.710938 362.507812 62.316406 367.867188 62.054688 C 373.226562 61.792969 378.589844 61.660156 383.957031 61.660156 C 389.324219 61.660156 394.6875 61.792969 400.046875 62.054688 C 405.40625 62.316406 410.757812 62.710938 416.097656 63.238281 C 421.441406 63.765625 426.765625 64.421875 432.074219 65.207031 C 437.382812 65.996094 442.667969 66.914062 447.933594 67.960938 C 453.195312 69.007812 458.429688 70.183594 463.636719 71.488281 C 468.84375 72.789062 474.011719 74.222656 479.148438 75.78125 C 484.285156 77.335938 489.378906 79.019531 494.433594 80.828125 C 499.484375 82.636719 504.492188 84.566406 509.449219 86.621094 C 514.40625 88.675781 519.3125 90.847656 524.164062 93.144531 C 529.015625 95.4375 533.808594 97.851562 538.539062 100.378906 C 543.273438 102.910156 547.941406 105.554688 552.542969 108.3125 C 557.148438 111.074219 561.679688 113.941406 566.144531 116.925781 C 570.605469 119.90625 574.992188 122.996094 579.300781 126.191406 C 583.613281 129.390625 587.84375 132.691406 591.992188 136.09375 C 596.140625 139.5 600.203125 143.003906 604.179688 146.609375 C 608.15625 150.210938 612.039062 153.910156 615.835938 157.707031 C 619.628906 161.5 623.328125 165.386719 626.933594 169.363281 C 630.539062 173.339844 634.042969 177.402344 637.445312 181.550781 C 640.851562 185.699219 644.152344 189.929688 647.347656 194.238281 C 650.546875 198.550781 653.636719 202.9375 656.617188 207.398438 C 659.597656 211.863281 662.46875 216.394531 665.226562 220.996094 C 667.988281 225.601562 670.632812 230.269531 673.160156 235 C 675.691406 239.734375 678.105469 244.527344 680.398438 249.378906 C 682.691406 254.230469 684.867188 259.136719 686.921875 264.09375 C 688.972656 269.050781 690.90625 274.058594 692.714844 279.109375 C 694.519531 284.164062 696.203125 289.257812 697.761719 294.394531 C 699.320312 299.527344 700.75 304.699219 702.054688 309.90625 C 703.359375 315.113281 704.535156 320.347656 705.582031 325.609375 C 706.628906 330.875 707.546875 336.160156 708.332031 341.46875 C 709.121094 346.777344 709.777344 352.101562 710.304688 357.441406 C 710.828125 362.785156 711.222656 368.132812 711.488281 373.496094 C 711.75 378.855469 711.882812 384.21875 711.882812 389.585938 Z M 711.882812 389.585938 " fill-opacity="1" fill-rule="nonzero"/><g clip-path="url(#0ababa7dd2)"><path stroke-linecap="butt" transform="matrix(3.73619, 0, 0, 3.73619, 49.045196, 54.672797)" fill="none" stroke-linejoin="miter" d="M 177.410062 89.640297 C 177.410062 91.076837 177.374514 92.512332 177.304464 93.946782 C 177.233369 95.381231 177.127772 96.81359 176.987673 98.242812 C 176.846528 99.672033 176.670881 101.098119 176.459686 102.518976 C 176.249538 103.939834 176.003841 105.354419 175.723642 106.76273 C 175.443444 108.172087 175.128743 109.57308 174.779541 110.966754 C 174.430338 112.359383 174.047679 113.743648 173.630517 115.118503 C 173.213356 116.492312 172.762738 117.856712 172.279709 119.208566 C 171.795635 120.561465 171.278104 121.900772 170.729207 123.228579 C 170.179265 124.55534 169.596912 125.867464 168.983194 127.165996 C 168.369475 128.464528 167.723346 129.747378 167.045851 131.014545 C 166.369401 132.281711 165.661586 133.531104 164.922405 134.762723 C 164.18427 135.994342 163.415815 137.208188 162.618086 138.402168 C 161.820356 139.597194 160.993352 140.770264 160.137074 141.924515 C 159.281841 143.078766 158.398379 144.210016 157.486688 145.320355 C 156.576043 146.430694 155.638214 147.518032 154.673201 148.582368 C 153.708189 149.646705 152.718085 150.686994 151.702887 151.703237 C 150.686645 152.718434 149.647401 153.708538 148.583064 154.673551 C 147.518728 155.637517 146.43139 156.576392 145.321051 157.487037 C 144.210712 158.398728 143.078417 159.28219 141.924166 160.137423 C 140.770961 160.993701 139.596845 161.81966 138.402865 162.618435 C 137.207839 163.416165 135.995039 164.18462 134.762374 164.922755 C 133.530755 165.66089 132.281362 166.368705 131.014195 167.0462 C 129.748074 167.723695 128.465225 168.368779 127.166692 168.983543 C 125.86816 169.597262 124.554991 170.179615 123.22823 170.728511 C 121.901468 171.278453 120.561116 171.794938 119.209262 172.279013 C 117.856363 172.763087 116.493009 173.213705 115.118154 173.630866 C 113.743299 174.048028 112.36008 174.430687 110.966405 174.77989 C 109.572731 175.129092 108.171738 175.443793 106.763427 175.723992 C 105.35407 176.00419 103.939485 176.248841 102.518627 176.460036 C 101.097769 176.67123 99.67273 176.846877 98.242462 176.986976 C 96.81324 177.128121 95.380882 177.233718 93.946433 177.303768 C 92.511983 177.374863 91.076488 177.410411 89.639948 177.410411 C 88.203407 177.410411 86.767912 177.374863 85.333463 177.303768 C 83.899013 177.233718 82.466655 177.128121 81.037433 176.986976 C 79.607166 176.846877 78.182126 176.67123 76.761268 176.460036 C 75.340411 176.248841 73.925826 176.00419 72.516469 175.723992 C 71.108157 175.443793 69.707165 175.129092 68.31349 174.77989 C 66.919816 174.430687 65.536597 174.048028 64.161742 173.630866 C 62.786887 173.213705 61.423533 172.763087 60.071679 172.279013 C 58.71878 171.794938 57.378427 171.278453 56.051666 170.728511 C 54.724905 170.179615 53.411735 169.597262 52.113203 168.983543 C 50.814671 168.368779 49.531821 167.723695 48.2657 167.0462 C 46.998533 166.368705 45.749141 165.66089 44.517521 164.922755 C 43.284857 164.18462 42.072057 163.416165 40.878076 162.618435 C 39.68305 161.81966 38.508935 160.993701 37.355729 160.137423 C 36.201479 159.28219 35.069184 158.398728 33.958844 157.487037 C 32.848505 156.575346 31.761167 155.637517 30.696831 154.673551 C 29.632495 153.708538 28.593251 152.718434 27.577008 151.703237 C 26.561811 150.686994 25.571706 149.646705 24.606694 148.582368 C 23.641682 147.518032 22.703853 146.430694 21.793208 145.320355 C 20.881517 144.210016 19.998055 143.078766 19.142822 141.924515 C 18.286543 140.770264 17.459539 139.597194 16.66181 138.402168 C 15.86408 137.208188 15.095625 135.994342 14.35749 134.762723 C 13.618309 133.531104 12.910494 132.281711 12.234045 131.014545 C 11.55655 129.747378 10.911466 128.464528 10.296702 127.165996 C 9.682983 125.867464 9.10063 124.55534 8.550688 123.228579 C 8.001792 121.900772 7.484261 120.561465 7.000186 119.208566 C 6.517157 117.856712 6.06654 116.493358 5.649378 115.118503 C 5.232217 113.743648 4.849558 112.359383 4.500355 110.966754 C 4.151152 109.57308 3.836452 108.172087 3.556253 106.76273 C 3.276054 105.354419 3.030358 103.939834 2.820209 102.518976 C 2.609015 101.098119 2.433368 99.672033 2.292223 98.242812 C 2.152124 96.81359 2.046526 95.381231 1.975431 93.946782 C 1.905382 92.512332 1.869834 91.076837 1.869834 89.640297 C 1.869834 88.203757 1.905382 86.768262 1.975431 85.333812 C 2.046526 83.898317 2.152124 82.467004 2.292223 81.036737 C 2.433368 79.607515 2.609015 78.182475 2.820209 76.761618 C 3.030358 75.34076 3.276054 73.926175 3.556253 72.516818 C 3.836452 71.108507 4.151152 69.707514 4.500355 68.313839 C 4.849558 66.920165 5.232217 65.535901 5.649378 64.162091 C 6.06654 62.787236 6.517157 61.423882 7.000186 60.070983 C 7.484261 58.719129 8.001792 57.378776 8.550688 56.052015 C 9.10063 54.725254 9.682983 53.412084 10.296702 52.113552 C 10.911466 50.81502 11.55655 49.532171 12.234045 48.265004 C 12.910494 46.998883 13.618309 45.74949 14.35749 44.516825 C 15.095625 43.285206 15.86408 42.072406 16.66181 40.87738 C 17.459539 39.6834 18.286543 38.509284 19.142822 37.355033 C 19.998055 36.201828 20.881517 35.069533 21.793208 33.959194 C 22.703853 32.848854 23.641682 31.761517 24.606694 30.69718 C 25.571706 29.632844 26.561811 28.592554 27.577008 27.577357 C 28.593251 26.561115 29.632495 25.57101 30.696831 24.607043 C 31.761167 23.642031 32.848505 22.704202 33.958844 21.792511 C 35.069184 20.881866 36.201479 19.998404 37.355729 19.142125 C 38.508935 18.286892 39.68305 17.459888 40.878076 16.662159 C 42.072057 15.863384 43.284857 15.095974 44.517521 14.356794 C 45.749141 13.618659 46.998533 12.910844 48.2657 12.233349 C 49.531821 11.556899 50.814671 10.910769 52.113203 10.297051 C 53.411735 9.682287 54.724905 9.100979 56.051666 8.551037 C 57.378427 8.001095 58.71878 7.48461 60.071679 7.000536 C 61.423533 6.516461 62.786887 6.065843 64.161742 5.649727 C 65.536597 5.232566 66.919816 4.848861 68.31349 4.500704 C 69.707165 4.151501 71.108157 3.836801 72.516469 3.556602 C 73.925826 3.276404 75.340411 3.030707 76.761268 2.819513 C 78.182126 2.609364 79.607166 2.433717 81.037433 2.292572 C 82.466655 2.151427 83.899013 2.04583 85.333463 1.97578 C 86.767912 1.905731 88.203407 1.870183 89.639948 1.870183 C 91.076488 1.870183 92.511983 1.905731 93.946433 1.97578 C 95.380882 2.04583 96.81324 2.151427 98.242462 2.292572 C 99.67273 2.433717 101.097769 2.609364 102.518627 2.819513 C 103.939485 3.030707 105.35407 3.276404 106.763427 3.556602 C 108.171738 3.836801 109.572731 4.151501 110.966405 4.500704 C 112.36008 4.848861 113.743299 5.232566 115.118154 5.649727 C 116.493009 6.065843 117.856363 6.516461 119.209262 7.000536 C 120.561116 7.48461 121.901468 8.001095 123.22823 8.551037 C 124.554991 9.100979 125.86816 9.682287 127.166692 10.297051 C 128.465225 10.910769 129.748074 11.556899 131.014195 12.233349 C 132.281362 12.910844 133.530755 13.618659 134.762374 14.356794 C 135.995039 15.095974 137.207839 15.863384 138.402865 16.662159 C 139.596845 17.459888 140.770961 18.286892 141.924166 19.142125 C 143.078417 19.998404 144.210712 20.881866 145.321051 21.792511 C 146.43139 22.704202 147.518728 23.642031 148.583064 24.607043 C 149.647401 25.57101 150.686645 26.561115 151.702887 27.577357 C 152.718085 28.592554 153.708189 29.632844 154.673201 30.69718 C 155.638214 31.761517 156.576043 32.848854 157.486688 33.959194 C 158.398379 35.069533 159.281841 36.201828 160.137074 37.355033 C 160.993352 38.509284 161.820356 39.6834 162.618086 40.87738 C 163.415815 42.072406 164.18427 43.285206 164.922405 44.516825 C 165.661586 45.74949 166.369401 46.998883 167.045851 48.265004 C 167.723346 49.532171 168.369475 50.81502 168.983194 52.113552 C 169.596912 53.412084 170.179265 54.725254 170.729207 56.052015 C 171.278104 57.378776 171.795635 58.719129 172.279709 60.070983 C 172.762738 61.423882 173.213356 62.787236 173.630517 64.162091 C 174.047679 65.535901 174.430338 66.920165 174.779541 68.313839 C 175.128743 69.707514 175.443444 71.108507 175.723642 72.516818 C 176.003841 73.926175 176.249538 75.34076 176.459686 76.761618 C 176.670881 78.182475 176.846528 79.607515 176.987673 81.036737 C 177.127772 82.467004 177.233369 83.898317 177.304464 85.333812 C 177.374514 86.768262 177.410062 88.203757 177.410062 89.640297 Z M 177.410062 89.640297 " stroke="#000000" stroke-width="1" stroke-opacity="1" stroke-miterlimit="10"/></g><g clip-path="url(#27b4820ef3)"><path fill="#000000" d="M 630.382812 503.453125 L 591.621094 464.699219 C 590.863281 463.984375 590.066406 463.308594 589.238281 462.671875 C 588.410156 462.039062 587.550781 461.449219 586.664062 460.902344 C 585.773438 460.355469 584.859375 459.855469 583.921875 459.402344 C 582.980469 458.945312 582.019531 458.542969 581.039062 458.1875 C 580.058594 457.832031 579.0625 457.527344 578.050781 457.269531 C 577.039062 457.015625 576.015625 456.816406 574.984375 456.664062 C 573.949219 456.515625 572.914062 456.417969 571.871094 456.375 C 570.828125 456.328125 569.785156 456.339844 568.742188 456.402344 C 567.703125 456.464844 566.667969 456.578125 565.636719 456.746094 C 564.605469 456.914062 563.585938 457.132812 562.578125 457.40625 C 561.570312 457.675781 560.582031 458 559.605469 458.371094 C 558.632812 458.742188 557.679688 459.164062 556.746094 459.632812 C 555.816406 460.105469 554.910156 460.621094 554.03125 461.183594 C 553.152344 461.746094 552.304688 462.351562 551.484375 463 C 550.667969 463.648438 549.886719 464.335938 549.140625 465.0625 C 548.390625 465.792969 547.683594 466.558594 547.015625 467.359375 L 522.171875 452.660156 C 520.96875 451.953125 519.816406 451.164062 518.722656 450.296875 C 517.625 449.429688 516.597656 448.488281 515.632812 447.480469 C 514.667969 446.46875 513.777344 445.394531 512.960938 444.261719 C 512.144531 443.125 511.410156 441.941406 510.761719 440.703125 C 510.109375 439.46875 509.546875 438.191406 509.070312 436.878906 C 508.597656 435.5625 508.21875 434.222656 507.929688 432.855469 C 507.640625 431.488281 507.449219 430.109375 507.355469 428.714844 C 507.257812 427.320312 507.257812 425.925781 507.355469 424.53125 L 511.753906 359.210938 C 512.277344 351.273438 511.9375 343.371094 510.734375 335.507812 C 509.535156 327.640625 507.5 320 504.628906 312.578125 L 433.285156 128.933594 C 433.066406 128.351562 432.828125 127.777344 432.570312 127.207031 C 432.316406 126.640625 432.042969 126.082031 431.75 125.53125 C 431.460938 124.980469 431.152344 124.441406 430.828125 123.910156 C 430.503906 123.378906 430.164062 122.855469 429.808594 122.347656 C 429.449219 121.835938 429.078125 121.339844 428.691406 120.851562 C 428.304688 120.363281 427.902344 119.890625 427.484375 119.425781 C 427.066406 118.964844 426.636719 118.515625 426.191406 118.082031 C 425.746094 117.644531 425.289062 117.222656 424.820312 116.816406 C 424.347656 116.410156 423.863281 116.015625 423.371094 115.640625 C 422.875 115.261719 422.367188 114.902344 421.851562 114.554688 C 421.332031 114.207031 420.804688 113.878906 420.265625 113.566406 C 419.730469 113.253906 419.179688 112.957031 418.625 112.675781 C 418.070312 112.398438 417.503906 112.136719 416.933594 111.890625 C 416.359375 111.648438 415.78125 111.421875 415.191406 111.210938 C 414.605469 111.003906 414.015625 110.8125 413.414062 110.644531 C 412.816406 110.472656 412.214844 110.316406 411.605469 110.183594 C 410.996094 110.050781 410.386719 109.933594 409.769531 109.835938 C 409.15625 109.742188 408.539062 109.664062 407.917969 109.605469 C 407.300781 109.546875 406.679688 109.507812 406.054688 109.488281 C 405.433594 109.46875 404.8125 109.46875 404.1875 109.488281 C 403.566406 109.507812 402.945312 109.542969 402.324219 109.601562 C 401.707031 109.660156 401.089844 109.734375 400.472656 109.832031 C 399.859375 109.925781 399.246094 110.042969 398.636719 110.175781 C 398.03125 110.308594 397.425781 110.460938 396.828125 110.632812 C 396.230469 110.800781 395.636719 110.992188 395.050781 111.199219 C 394.460938 111.40625 393.882812 111.632812 393.308594 111.875 C 392.738281 112.117188 392.171875 112.378906 391.617188 112.660156 C 391.058594 112.9375 390.511719 113.230469 389.972656 113.542969 C 389.433594 113.855469 388.90625 114.1875 388.386719 114.53125 C 387.871094 114.875 387.363281 115.238281 386.867188 115.613281 C 386.371094 115.992188 385.886719 116.382812 385.417969 116.789062 C 384.945312 117.195312 384.488281 117.617188 384.042969 118.050781 C 382.25 116.1875 380.25 114.582031 378.042969 113.234375 C 375.835938 111.886719 373.496094 110.84375 371.019531 110.101562 C 370.117188 109.839844 369.203125 109.621094 368.277344 109.445312 C 367.355469 109.265625 366.421875 109.132812 365.488281 109.042969 C 364.550781 108.953125 363.613281 108.90625 362.671875 108.902344 C 361.730469 108.898438 360.792969 108.9375 359.855469 109.019531 C 358.917969 109.101562 357.984375 109.226562 357.058594 109.394531 C 356.132812 109.5625 355.21875 109.773438 354.3125 110.027344 C 353.40625 110.28125 352.515625 110.574219 351.636719 110.910156 C 350.757812 111.246094 349.894531 111.621094 349.050781 112.035156 C 348.207031 112.453125 347.382812 112.90625 346.578125 113.394531 C 345.777344 113.886719 345 114.414062 344.246094 114.976562 C 343.492188 115.539062 342.765625 116.136719 342.066406 116.765625 C 341.367188 117.394531 340.699219 118.054688 340.0625 118.746094 C 339.421875 119.4375 338.820312 120.15625 338.246094 120.90625 C 337.675781 121.652344 337.140625 122.425781 336.640625 123.222656 C 336.140625 124.019531 335.679688 124.835938 335.253906 125.675781 C 334.828125 126.515625 334.445312 127.371094 334.097656 128.246094 L 262.757812 311.902344 C 249.417969 339.949219 259.105469 393.882812 260.03125 423.855469 C 260.128906 425.25 260.128906 426.644531 260.03125 428.039062 C 259.9375 429.433594 259.746094 430.816406 259.457031 432.183594 C 259.171875 433.550781 258.789062 434.890625 258.316406 436.207031 C 257.839844 437.523438 257.277344 438.796875 256.628906 440.035156 C 255.976562 441.269531 255.242188 442.457031 254.425781 443.589844 C 253.609375 444.726562 252.71875 445.800781 251.753906 446.8125 C 250.789062 447.820312 249.761719 448.761719 248.664062 449.628906 C 247.570312 450.5 246.417969 451.285156 245.214844 451.996094 L 220.378906 466.6875 C 219.722656 465.871094 219.023438 465.089844 218.285156 464.34375 C 217.546875 463.597656 216.769531 462.890625 215.957031 462.226562 C 215.144531 461.5625 214.300781 460.941406 213.425781 460.367188 C 212.546875 459.789062 211.644531 459.261719 210.710938 458.777344 C 209.777344 458.296875 208.824219 457.863281 207.84375 457.484375 C 206.867188 457.101562 205.875 456.769531 204.859375 456.492188 C 203.847656 456.214844 202.824219 455.988281 201.789062 455.816406 C 200.753906 455.644531 199.710938 455.527344 198.664062 455.464844 C 197.617188 455.402344 196.570312 455.394531 195.519531 455.441406 C 194.472656 455.488281 193.429688 455.589844 192.390625 455.746094 C 191.351562 455.902344 190.324219 456.113281 189.308594 456.375 C 188.292969 456.636719 187.292969 456.953125 186.3125 457.320312 C 185.328125 457.6875 184.367188 458.105469 183.425781 458.574219 C 182.488281 459.042969 181.574219 459.558594 180.6875 460.121094 C 179.804688 460.683594 178.949219 461.289062 178.128906 461.941406 C 177.304688 462.59375 176.519531 463.289062 175.769531 464.023438 L 137.003906 502.777344 C 136.542969 503.238281 136.136719 503.738281 135.773438 504.277344 C 135.414062 504.816406 135.109375 505.386719 134.859375 505.984375 C 134.613281 506.585938 134.425781 507.203125 134.296875 507.839844 C 134.171875 508.476562 134.109375 509.117188 134.109375 509.765625 C 134.109375 510.417969 134.171875 511.058594 134.296875 511.695312 C 134.425781 512.332031 134.613281 512.949219 134.859375 513.550781 C 135.109375 514.148438 135.414062 514.71875 135.773438 515.257812 C 136.136719 515.796875 136.542969 516.296875 137.003906 516.757812 L 279.097656 658.816406 C 279.558594 659.277344 280.058594 659.6875 280.597656 660.046875 C 281.136719 660.40625 281.707031 660.710938 282.304688 660.960938 C 282.90625 661.210938 283.523438 661.398438 284.160156 661.523438 C 284.796875 661.648438 285.441406 661.714844 286.089844 661.714844 C 286.738281 661.714844 287.382812 661.648438 288.019531 661.523438 C 288.65625 661.398438 289.273438 661.210938 289.871094 660.960938 C 290.472656 660.710938 291.042969 660.40625 291.582031 660.046875 C 292.121094 659.6875 292.621094 659.277344 293.078125 658.816406 L 331.84375 620.0625 C 332.527344 619.371094 333.175781 618.652344 333.785156 617.898438 C 334.398438 617.148438 334.972656 616.367188 335.507812 615.558594 C 336.046875 614.75 336.539062 613.917969 336.996094 613.0625 C 337.449219 612.203125 337.863281 611.328125 338.230469 610.429688 C 338.601562 609.535156 338.925781 608.621094 339.203125 607.691406 C 339.484375 606.765625 339.71875 605.824219 339.90625 604.871094 C 340.09375 603.921875 340.234375 602.960938 340.332031 601.996094 C 340.425781 601.03125 340.472656 600.066406 340.472656 599.09375 C 340.472656 598.125 340.425781 597.15625 340.332031 596.191406 C 340.234375 595.226562 340.09375 594.269531 339.90625 593.316406 C 339.71875 592.367188 339.484375 591.425781 339.203125 590.496094 C 338.925781 589.570312 338.601562 588.65625 338.230469 587.757812 C 337.863281 586.863281 337.449219 585.984375 336.996094 585.128906 C 336.539062 584.273438 336.046875 583.441406 335.507812 582.632812 C 334.972656 581.824219 334.398438 581.042969 333.785156 580.292969 C 333.175781 579.539062 332.527344 578.816406 331.84375 578.128906 L 327.902344 574.1875 C 337.375 566.699219 374.226562 540.066406 383.527344 517.796875 C 392.621094 540.390625 429.820312 567.1875 439.484375 574.863281 C 437.574219 576.34375 435.851562 578.011719 434.3125 579.875 C 432.777344 581.734375 431.460938 583.742188 430.371094 585.898438 C 429.277344 588.050781 428.433594 590.296875 427.84375 592.640625 C 427.25 594.980469 426.921875 597.355469 426.855469 599.769531 C 426.851562 601.71875 427.039062 603.648438 427.414062 605.558594 C 427.792969 607.46875 428.355469 609.324219 429.097656 611.125 C 429.84375 612.921875 430.757812 614.632812 431.84375 616.25 C 432.929688 617.867188 434.160156 619.363281 435.542969 620.738281 L 474.304688 659.492188 C 474.765625 659.953125 475.265625 660.363281 475.804688 660.722656 C 476.34375 661.082031 476.914062 661.386719 477.511719 661.636719 C 478.113281 661.882812 478.730469 662.070312 479.367188 662.199219 C 480.003906 662.324219 480.648438 662.390625 481.296875 662.390625 C 481.945312 662.390625 482.589844 662.324219 483.226562 662.199219 C 483.863281 662.070312 484.480469 661.882812 485.078125 661.636719 C 485.679688 661.386719 486.25 661.082031 486.789062 660.722656 C 487.328125 660.363281 487.828125 659.953125 488.285156 659.492188 L 630.382812 517.433594 C 630.839844 516.972656 631.25 516.472656 631.613281 515.933594 C 631.972656 515.394531 632.277344 514.824219 632.527344 514.226562 C 632.773438 513.625 632.960938 513.007812 633.089844 512.371094 C 633.214844 511.734375 633.277344 511.09375 633.277344 510.441406 C 633.277344 509.792969 633.214844 509.152344 633.089844 508.515625 C 632.960938 507.878906 632.773438 507.261719 632.527344 506.660156 C 632.277344 506.0625 631.972656 505.492188 631.613281 504.953125 C 631.25 504.414062 630.839844 503.914062 630.382812 503.453125 Z M 383.128906 384.976562 C 381.753906 378.59375 381.109375 372.144531 381.195312 365.617188 C 381.28125 359.09375 382.097656 352.660156 383.640625 346.316406 C 385.222656 352.765625 386.0625 359.308594 386.167969 365.945312 C 386.273438 372.582031 385.636719 379.148438 384.257812 385.640625 C 383.71875 388.609375 383.628906 386.941406 383.128906 384.976562 Z M 384.011719 257.84375 C 381.878906 255.625 379.484375 253.734375 376.832031 252.171875 C 374.175781 250.613281 371.359375 249.441406 368.382812 248.65625 L 383.613281 182.664062 L 399 249.328125 C 396.175781 250.070312 393.488281 251.160156 390.949219 252.605469 C 388.40625 254.046875 386.09375 255.792969 384.011719 257.84375 Z M 317.863281 606.082031 L 286.089844 637.851562 L 157.976562 509.765625 L 189.75 478 C 190.210938 477.542969 190.710938 477.136719 191.25 476.777344 C 191.789062 476.417969 192.359375 476.113281 192.960938 475.867188 C 193.558594 475.621094 194.175781 475.433594 194.8125 475.308594 C 195.449219 475.179688 196.09375 475.117188 196.742188 475.117188 C 197.390625 475.117188 198.03125 475.179688 198.667969 475.308594 C 199.304688 475.433594 199.921875 475.621094 200.519531 475.867188 C 201.121094 476.113281 201.691406 476.417969 202.230469 476.777344 C 202.769531 477.136719 203.269531 477.542969 203.730469 478 L 317.859375 592.105469 C 318.316406 592.566406 318.722656 593.066406 319.082031 593.609375 C 319.4375 594.148438 319.742188 594.71875 319.988281 595.316406 C 320.234375 595.914062 320.421875 596.535156 320.546875 597.167969 C 320.671875 597.804688 320.738281 598.445312 320.738281 599.09375 C 320.738281 599.742188 320.675781 600.382812 320.546875 601.019531 C 320.421875 601.65625 320.238281 602.273438 319.992188 602.871094 C 319.746094 603.472656 319.441406 604.042969 319.085938 604.582031 C 318.726562 605.121094 318.320312 605.625 317.863281 606.082031 Z M 355.160156 524.671875 C 342.351562 537.640625 328.507812 549.386719 313.625 559.914062 L 234.808594 481.117188 L 255.285156 469.003906 C 257.273438 467.832031 259.175781 466.53125 260.984375 465.097656 C 262.792969 463.664062 264.496094 462.109375 266.089844 460.441406 C 267.683594 458.769531 269.15625 456.996094 270.503906 455.125 C 271.851562 453.25 273.0625 451.289062 274.136719 449.246094 C 275.214844 447.203125 276.144531 445.097656 276.925781 442.925781 C 277.707031 440.753906 278.335938 438.535156 278.8125 436.277344 C 279.285156 434.019531 279.601562 431.738281 279.761719 429.433594 C 279.917969 427.128906 279.917969 424.828125 279.753906 422.523438 L 275.355469 357.214844 C 274.929688 350.71875 275.210938 344.253906 276.191406 337.820312 C 277.175781 331.386719 278.839844 325.136719 281.1875 319.066406 L 352.53125 135.410156 C 352.78125 134.800781 353.082031 134.222656 353.441406 133.667969 C 353.796875 133.117188 354.203125 132.605469 354.65625 132.125 C 355.105469 131.648438 355.597656 131.21875 356.132812 130.832031 C 356.664062 130.449219 357.226562 130.113281 357.820312 129.832031 C 358.414062 129.550781 359.03125 129.328125 359.667969 129.160156 C 360.300781 128.992188 360.949219 128.882812 361.601562 128.835938 C 362.257812 128.789062 362.914062 128.800781 363.566406 128.875 C 364.21875 128.949219 364.859375 129.082031 365.488281 129.273438 C 366.117188 129.464844 366.722656 129.714844 367.304688 130.019531 C 367.886719 130.324219 368.4375 130.679688 368.953125 131.085938 C 369.472656 131.492188 369.945312 131.941406 370.378906 132.4375 C 370.8125 132.929688 371.195312 133.460938 371.53125 134.027344 C 371.867188 134.589844 372.148438 135.183594 372.371094 135.800781 C 372.597656 136.417969 372.765625 137.050781 372.875 137.699219 C 372.980469 138.347656 373.027344 139 373.015625 139.65625 C 373.003906 140.3125 372.929688 140.964844 372.796875 141.605469 L 347.871094 249.582031 C 345.484375 250.472656 343.230469 251.617188 341.105469 253.023438 C 338.980469 254.425781 337.039062 256.050781 335.285156 257.894531 C 333.53125 259.742188 332.007812 261.761719 330.710938 263.953125 C 329.417969 266.148438 328.386719 268.460938 327.621094 270.886719 L 301.96875 351.257812 C 301.769531 351.875 301.632812 352.507812 301.554688 353.15625 C 301.480469 353.800781 301.472656 354.445312 301.523438 355.09375 C 301.578125 355.742188 301.695312 356.378906 301.875 357.003906 C 302.050781 357.628906 302.289062 358.230469 302.589844 358.808594 C 302.886719 359.386719 303.238281 359.929688 303.640625 360.4375 C 304.046875 360.945312 304.496094 361.410156 304.992188 361.832031 C 305.492188 362.25 306.023438 362.617188 306.59375 362.933594 C 307.160156 363.246094 307.753906 363.503906 308.375 363.699219 C 308.996094 363.898438 309.628906 364.035156 310.273438 364.105469 C 310.917969 364.179688 311.566406 364.1875 312.214844 364.132812 C 312.863281 364.078125 313.5 363.960938 314.121094 363.777344 C 314.746094 363.597656 315.347656 363.359375 315.925781 363.058594 C 316.503906 362.761719 317.046875 362.40625 317.554688 362.003906 C 318.0625 361.597656 318.523438 361.144531 318.941406 360.648438 C 319.359375 360.148438 319.726562 359.617188 320.039062 359.046875 C 320.355469 358.476562 320.609375 357.882812 320.804688 357.261719 L 346.457031 276.890625 C 346.734375 276.078125 347.085938 275.292969 347.507812 274.542969 C 347.929688 273.792969 348.414062 273.085938 348.96875 272.425781 C 349.519531 271.765625 350.128906 271.160156 350.792969 270.613281 C 351.457031 270.066406 352.164062 269.582031 352.917969 269.164062 C 353.671875 268.75 354.457031 268.402344 355.273438 268.132812 C 356.089844 267.859375 356.925781 267.667969 357.78125 267.550781 C 358.632812 267.433594 359.488281 267.394531 360.351562 267.433594 C 361.210938 267.476562 362.058594 267.597656 362.898438 267.792969 C 363.734375 267.992188 364.546875 268.265625 365.335938 268.613281 C 366.125 268.960938 366.871094 269.378906 367.582031 269.867188 C 368.292969 270.355469 368.953125 270.902344 369.558594 271.511719 C 370.167969 272.121094 370.71875 272.78125 371.203125 273.492188 C 371.691406 274.203125 372.109375 274.949219 372.457031 275.738281 C 372.804688 276.523438 373.078125 277.339844 373.273438 278.175781 C 373.472656 279.015625 373.589844 279.863281 373.632812 280.722656 C 373.671875 281.582031 373.632812 282.441406 373.515625 283.292969 L 362.335938 354.539062 C 357.949219 392.171875 374.121094 412.027344 373.722656 460.339844 C 374.167969 484.039062 370.03125 510.921875 355.160156 524.671875 Z M 412.222656 525.347656 C 397.21875 511.460938 393.109375 484.21875 393.675781 460.277344 C 393.429688 412.257812 409.433594 392.683594 405.050781 355.214844 L 393.871094 283.96875 C 393.75 283.113281 393.710938 282.257812 393.753906 281.398438 C 393.792969 280.539062 393.910156 279.6875 394.109375 278.851562 C 394.308594 278.011719 394.578125 277.199219 394.929688 276.410156 C 395.277344 275.625 395.695312 274.875 396.179688 274.164062 C 396.667969 273.453125 397.214844 272.792969 397.824219 272.183594 C 398.433594 271.574219 399.09375 271.027344 399.800781 270.539062 C 400.511719 270.050781 401.261719 269.632812 402.050781 269.285156 C 402.835938 268.9375 403.648438 268.664062 404.488281 268.464844 C 405.324219 268.265625 406.175781 268.148438 407.035156 268.105469 C 407.894531 268.066406 408.753906 268.101562 409.605469 268.21875 C 410.460938 268.335938 411.296875 268.53125 412.113281 268.804688 C 412.929688 269.078125 413.714844 269.421875 414.46875 269.839844 C 415.222656 270.253906 415.929688 270.738281 416.59375 271.285156 C 417.257812 271.835938 417.867188 272.441406 418.421875 273.101562 C 418.972656 273.761719 419.460938 274.46875 419.878906 275.21875 C 420.300781 275.96875 420.652344 276.753906 420.929688 277.570312 L 446.582031 357.929688 C 446.777344 358.546875 447.03125 359.140625 447.34375 359.710938 C 447.660156 360.28125 448.023438 360.816406 448.441406 361.3125 C 448.863281 361.808594 449.324219 362.261719 449.832031 362.667969 C 450.339844 363.074219 450.882812 363.425781 451.460938 363.726562 C 452.039062 364.023438 452.636719 364.265625 453.261719 364.445312 C 453.886719 364.625 454.523438 364.742188 455.171875 364.796875 C 455.820312 364.851562 456.464844 364.84375 457.113281 364.773438 C 457.757812 364.699219 458.390625 364.5625 459.011719 364.367188 C 459.628906 364.167969 460.222656 363.914062 460.792969 363.597656 C 461.363281 363.285156 461.894531 362.917969 462.390625 362.496094 C 462.886719 362.078125 463.339844 361.613281 463.742188 361.105469 C 464.148438 360.59375 464.5 360.050781 464.796875 359.472656 C 465.09375 358.894531 465.332031 358.296875 465.511719 357.671875 C 465.691406 357.046875 465.808594 356.410156 465.859375 355.761719 C 465.914062 355.113281 465.902344 354.464844 465.828125 353.820312 C 465.753906 353.175781 465.617188 352.542969 465.417969 351.921875 L 439.765625 271.5625 C 439 269.136719 437.96875 266.824219 436.675781 264.632812 C 435.378906 262.441406 433.855469 260.421875 432.101562 258.578125 C 430.347656 256.730469 428.40625 255.109375 426.28125 253.707031 C 424.15625 252.304688 421.902344 251.15625 419.515625 250.269531 L 394.589844 142.300781 C 394.453125 141.65625 394.378906 141.007812 394.363281 140.347656 C 394.351562 139.691406 394.398438 139.039062 394.503906 138.386719 C 394.609375 137.738281 394.777344 137.105469 395 136.488281 C 395.226562 135.867188 395.507812 135.277344 395.839844 134.710938 C 396.175781 134.144531 396.558594 133.613281 396.992188 133.117188 C 397.425781 132.621094 397.898438 132.171875 398.417969 131.761719 C 398.933594 131.355469 399.484375 131 400.066406 130.695312 C 400.648438 130.386719 401.253906 130.140625 401.882812 129.945312 C 402.511719 129.753906 403.15625 129.621094 403.808594 129.546875 C 404.464844 129.472656 405.117188 129.457031 405.773438 129.507812 C 406.429688 129.554688 407.078125 129.660156 407.714844 129.828125 C 408.351562 129.996094 408.964844 130.21875 409.558594 130.503906 C 410.15625 130.785156 410.71875 131.117188 411.253906 131.503906 C 411.785156 131.890625 412.277344 132.320312 412.730469 132.800781 C 413.183594 133.277344 413.589844 133.792969 413.945312 134.34375 C 414.300781 134.898438 414.605469 135.476562 414.855469 136.085938 L 486.195312 319.742188 C 488.542969 325.808594 490.210938 332.058594 491.191406 338.492188 C 492.175781 344.925781 492.453125 351.386719 492.027344 357.878906 L 487.628906 423.199219 C 487.46875 425.503906 487.464844 427.804688 487.625 430.109375 C 487.78125 432.410156 488.097656 434.691406 488.574219 436.953125 C 489.046875 439.210938 489.675781 441.425781 490.460938 443.597656 C 491.242188 445.769531 492.171875 447.875 493.246094 449.917969 C 494.324219 451.960938 495.535156 453.917969 496.882812 455.792969 C 498.230469 457.667969 499.703125 459.441406 501.296875 461.109375 C 502.890625 462.78125 504.589844 464.332031 506.402344 465.765625 C 508.210938 467.199219 510.109375 468.5 512.101562 469.667969 L 532.582031 481.785156 L 453.757812 560.589844 C 438.878906 550.0625 425.03125 538.316406 412.222656 525.347656 Z M 481.296875 638.527344 L 449.527344 606.757812 C 448.597656 605.835938 447.878906 604.765625 447.378906 603.554688 C 446.875 602.34375 446.625 601.082031 446.628906 599.769531 C 446.628906 597.125 563.660156 478.675781 563.660156 478.675781 C 564.121094 478.21875 564.621094 477.8125 565.160156 477.453125 C 565.699219 477.09375 566.269531 476.792969 566.867188 476.546875 C 567.46875 476.296875 568.085938 476.113281 568.722656 475.984375 C 569.355469 475.859375 570 475.796875 570.648438 475.796875 C 571.296875 475.796875 571.9375 475.859375 572.574219 475.984375 C 573.210938 476.113281 573.828125 476.296875 574.425781 476.546875 C 575.027344 476.792969 575.59375 477.09375 576.136719 477.453125 C 576.675781 477.8125 577.175781 478.21875 577.636719 478.675781 L 609.410156 510.441406 Z M 481.296875 638.527344 " fill-opacity="1" fill-rule="nonzero"/></g></svg>