<?xml version="1.0" encoding="utf-8"?>
<!-- Generator: Adobe Illustrator 27.5.0, SVG Export Plug-In . SVG Version: 6.00 Build 0)  -->
<svg version="1.1" xmlns="http://www.w3.org/2000/svg" xmlns:xlink="http://www.w3.org/1999/xlink" x="0px" y="0px"
	 viewBox="0 0 500 500" style="enable-background:new 0 0 500 500;" xml:space="preserve">
<g id="BACKGROUND">
	<rect style="fill:#F4EAE0;" width="500" height="500"/>
</g>
<g id="OBJECTS">
	<g>
		<path style="fill:#EDDFD3;" d="M369.643,76.44c-16.022-29.102-61.021-26.976-84.09-9.391
			c-28.394,21.645-47.165,68.251-71.453,94.199c-24.336,25.999-52.002,36.812-83.098,52.539
			c-45.328,22.926-81.62,48.947-93.012,101.73c-6.088,28.208-2.129,60.94,14.412,85.078c22.274,32.506,60.043,32.002,95.331,25.245
			c43.445-8.319,81.308-12.839,125.148-4.121c42.177,8.388,83.978,22.224,127.439,21.331c15.936-0.327,32.907-3.183,44.643-14.257
			c11.87-11.201,16.051-28.749,16.234-45.302c0.436-39.405-23.03-69.605-44.409-99.923c-26.099-37.01-39.245-81.816-35.294-127.516
			C383.805,129.31,382.855,100.439,369.643,76.44z"/>
		<g>
			<polygon style="fill:none;stroke:#F7B154;stroke-width:1.5;stroke-linejoin:round;stroke-miterlimit:10;" points="
				397.943,321.026 413.895,337.505 420.68,315.899 			"/>
			<polygon style="fill:none;stroke:#F7B154;stroke-width:1.5;stroke-linejoin:round;stroke-miterlimit:10;" points="
				144.849,47.478 122.545,60.855 146.354,76.325 			"/>
			<polygon style="fill:none;stroke:#F7B154;stroke-width:1.5;stroke-linejoin:round;stroke-miterlimit:10;" points="
				141.541,380.845 155.484,369.059 137.242,361.028 			"/>
			<g>
				<g>
					
						<line style="fill:none;stroke:#F277A9;stroke-width:1.5;stroke-linejoin:round;stroke-miterlimit:10;" x1="116.044" y1="165.096" x2="116.044" y2="172.323"/>
					
						<line style="fill:none;stroke:#F277A9;stroke-width:1.5;stroke-linejoin:round;stroke-miterlimit:10;" x1="116.044" y1="177.411" x2="116.044" y2="184.639"/>
					
						<line style="fill:none;stroke:#F277A9;stroke-width:1.5;stroke-linejoin:round;stroke-miterlimit:10;" x1="125.816" y1="174.867" x2="118.588" y2="174.867"/>
					
						<line style="fill:none;stroke:#F277A9;stroke-width:1.5;stroke-linejoin:round;stroke-miterlimit:10;" x1="113.5" y1="174.867" x2="106.273" y2="174.867"/>
				</g>
			</g>
			<g>
				<g>
					
						<line style="fill:none;stroke:#F277A9;stroke-width:1.5;stroke-linejoin:round;stroke-miterlimit:10;" x1="351.979" y1="395" x2="351.979" y2="402.228"/>
					
						<line style="fill:none;stroke:#F277A9;stroke-width:1.5;stroke-linejoin:round;stroke-miterlimit:10;" x1="351.979" y1="407.316" x2="351.979" y2="414.543"/>
					
						<line style="fill:none;stroke:#F277A9;stroke-width:1.5;stroke-linejoin:round;stroke-miterlimit:10;" x1="361.751" y1="404.772" x2="354.523" y2="404.772"/>
					
						<line style="fill:none;stroke:#F277A9;stroke-width:1.5;stroke-linejoin:round;stroke-miterlimit:10;" x1="349.435" y1="404.772" x2="342.208" y2="404.772"/>
				</g>
			</g>
			<g>
				<g>
					
						<line style="fill:none;stroke:#F277A9;stroke-width:1.5;stroke-linejoin:round;stroke-miterlimit:10;" x1="347.824" y1="66.554" x2="347.824" y2="72.445"/>
					
						<line style="fill:none;stroke:#F277A9;stroke-width:1.5;stroke-linejoin:round;stroke-miterlimit:10;" x1="347.824" y1="76.592" x2="347.824" y2="82.483"/>
					
						<line style="fill:none;stroke:#F277A9;stroke-width:1.5;stroke-linejoin:round;stroke-miterlimit:10;" x1="355.789" y1="74.519" x2="349.898" y2="74.519"/>
					
						<line style="fill:none;stroke:#F277A9;stroke-width:1.5;stroke-linejoin:round;stroke-miterlimit:10;" x1="345.75" y1="74.519" x2="339.86" y2="74.519"/>
				</g>
			</g>
			<g>
				<g>
					
						<line style="fill:none;stroke:#F277A9;stroke-width:1.5;stroke-linejoin:round;stroke-miterlimit:10;" x1="337.83" y1="117.529" x2="337.83" y2="127.4"/>
					
						<line style="fill:none;stroke:#F277A9;stroke-width:1.5;stroke-linejoin:round;stroke-miterlimit:10;" x1="337.83" y1="134.35" x2="337.83" y2="144.222"/>
					
						<line style="fill:none;stroke:#F277A9;stroke-width:1.5;stroke-linejoin:round;stroke-miterlimit:10;" x1="351.177" y1="130.875" x2="341.305" y2="130.875"/>
					
						<line style="fill:none;stroke:#F277A9;stroke-width:1.5;stroke-linejoin:round;stroke-miterlimit:10;" x1="334.355" y1="130.875" x2="324.483" y2="130.875"/>
				</g>
			</g>
			<g>
				<g>
					
						<line style="fill:none;stroke:#F277A9;stroke-width:1.5;stroke-linejoin:round;stroke-miterlimit:10;" x1="299.631" y1="85.299" x2="299.631" y2="92.527"/>
					
						<line style="fill:none;stroke:#F277A9;stroke-width:1.5;stroke-linejoin:round;stroke-miterlimit:10;" x1="299.631" y1="97.615" x2="299.631" y2="104.842"/>
					
						<line style="fill:none;stroke:#F277A9;stroke-width:1.5;stroke-linejoin:round;stroke-miterlimit:10;" x1="309.402" y1="95.071" x2="302.175" y2="95.071"/>
					
						<line style="fill:none;stroke:#F277A9;stroke-width:1.5;stroke-linejoin:round;stroke-miterlimit:10;" x1="297.087" y1="95.071" x2="289.86" y2="95.071"/>
				</g>
			</g>
		</g>
	</g>
	<g>
		<defs>
			<rect id="SVGID_1_" width="500" height="500"/>
		</defs>
		<clipPath id="SVGID_00000126323140327293342880000000370672476332013715_">
			<use xlink:href="#SVGID_1_"  style="overflow:visible;"/>
		</clipPath>
		<g style="clip-path:url(#SVGID_00000126323140327293342880000000370672476332013715_);">
			<g>
				<g>
					<path style="fill:#EB8B65;" d="M339.81,481.611c0,0,37.129,84.066,39.833,138.204s-36.904,214.286-36.904,214.286
						l-73.823-34.133l19.077-174.767l-28.091-102.254"/>
					<path style="fill:#1A1D28;" d="M288.059,844.235c13.043,7.249,18.985,29.569,34.704,34.663l72.836,23.604
						c0,0,2.92-11.128-4.578-24.089c-7.499-12.961-32.921-32.014-34.91-51.896c-1.324-13.228,0.042-37.163,0.042-37.163
						l-83.348-20.728l-22.878,86.668l34.032,11.029L288.059,844.235z"/>
					<path style="fill:#EB8B65;" d="M265.892,488.899c0,0,9.516,129.917,9.684,148.521c0.168,18.604,3.516,195.188,3.516,195.188
						h-78.597c0,0-20.746-215.96-20.746-218.883s-11.838-104.748-9.141-158.252"/>
					<path style="fill:none;stroke:#000000;stroke-miterlimit:10;" d="M275.576,637.42c0.168,18.604,3.516,195.188,3.516,195.188"/>
					<path style="fill:#2A2E3F;" d="M234.386,882.29c14.643,2.875,27.176,22.276,43.7,22.276h76.565c0,0-0.653-11.486-11.782-21.504
						c-11.129-10.018-41.187-20.306-49.209-38.606c-5.338-12.176-11.417-35.366-11.417-35.366l-85.679,5.977l4.955,89.499h35.774
						L234.386,882.29z"/>
				</g>
				<g>
					<path style="fill:#566EBC;" d="M186.254,383.862l-8.015,15.688l5.554,7.697c0,0-11.242,21.322-16.108,40.787
						c-4.866,19.464-3.273,41.706,0,73.695c2.74,26.778,8.363,86.206,8.363,86.206h210.004c0,0-12.646-57.488-39.501-117.36
						c-16.275-36.283-31.002-68.629-31.002-68.629l-2.922-14.894l-12.162-27.252"/>
					<line style="fill:none;stroke:#000000;stroke-miterlimit:10;" x1="315.548" y1="421.946" x2="180.653" y2="414.281"/>
					<path style="fill:none;stroke:#000000;stroke-miterlimit:10;" d="M250.909,458.719c16.53,7.599,34.795,11.395,52.985,11.011"/>
					<path style="fill:none;stroke:#000000;stroke-miterlimit:10;" d="M270.913,454.553c11.972,2.237,24.146,3.388,36.325,3.437"/>
					<path style="fill:none;stroke:#000000;stroke-miterlimit:10;" d="M192.344,414.945c-6.836,13.088-11.444,32.392-12.305,57.857"
						/>
				</g>
			</g>
			<g>
				<path style="fill:#9A4343;" d="M274.788,156.346c2.186,7.208,4.92,15.049,11.755,20.176
					c13.865,10.401,33.422,2.958,49.635,7.359c9.336,2.534,17.883,8.923,18.965,17.115c1.22,9.235-7.002,18.582-3.437,27.377
					c0.666,1.643,1.717,3.153,2.616,4.715c5.232,9.09,5.089,20.16-0.468,29.122c-7.834,12.633-23.429,16.819-38.884,19.829
					c-6.191,1.206-12.877,2.354-19.246,1.586c-6.58-0.793-13.329-3.022-19.8-4.379c-13.985-2.932-28.11-5.503-42.446-6.872
					c-11.528-1.101-23.454-1.484-34.016-5.518c-10.562-4.034-19.576-12.96-18.207-22.639c1.067-7.545,7.98-13.55,15.246-18.075
					c7.266-4.525,15.414-8.319,21.022-14.281c6.182-6.572,8.573-15.013,11.56-23.005c3.401-9.1,7.789-18.894,3.927-27.863"/>
				<path style="fill:#EB8B65;" d="M277.09,189.373l0.46,19.399l18.379,5.793c0,0-5.291,50.804-24.944,45.109
					c-19.653-5.695-76.919-45.766-76.919-45.766l19.496-10.734c0,0,9.42-39.212,8.762-38.993"/>
				<path style="fill:#FFFFFF;" d="M323.875,250c1.477,15.775,9.107,35.577,8.221,53.423c-0.519,10.459-9.411,41.258-10.584,51.663
					c-2.363,20.967,4.986,36.803,3.559,42.23c-1.787,6.792-12.445,9.736-12.445,9.736l-125.776-5.897l-3.057,6.092
					c-5.191-0.326-12.224-0.964-14.415-5.119c-2.191-4.155-1.811-9.144-1.296-13.813c2.67-24.197,13.832-47.562,10.57-72.112
					c-2.542-19.13-9.225-37.123-7.719-59.995v-31.059l39.928-22.14l48.277,18.766l12.081,34.433l-2.695-36.628l14.689-7.139h17.609
					L323.875,250z"/>
				<path style="fill:#FFFFFF;" d="M283.218,208.994c-0.111,1.412,1.796,1.946,3.212,1.962c10.656,0.119,21.538-0.741,31.78,2.205
					c15.503,4.459,26.927,16.879,34.176,30.823c9.305,17.9,16.201,37.454,21.019,57.016l-53.895,2.423l-20.639-59.572"/>
				<polygon style="fill:#FFFFFF;" points="279.388,203.009 268.525,219.581 283.214,232.973 290.181,212.753 				"/>
				<polyline style="fill:none;stroke:#000000;stroke-miterlimit:10;" points="268.525,219.581 283.214,232.973 290.181,212.753 
									"/>
				<polygon style="fill:#FFFFFF;" points="212.4,192.801 259.139,221.775 245.809,240.333 202.316,207.865 				"/>
				<polyline style="fill:none;stroke:#000000;stroke-miterlimit:10;" points="259.139,221.775 245.809,240.333 202.316,207.865 
									"/>
				<path style="fill:none;stroke:#000000;stroke-miterlimit:10;" d="M319.011,247.027c2.223,7.241,4.802,24.698,6.917,32.053
					c6.919,24.058,2.44,41.561-2.577,66.087"/>
				<path style="fill:none;stroke:#000000;stroke-miterlimit:10;" d="M271.22,256.208c5.381,33.596,11.455,73.438,9.123,107.382
					c-0.63,9.177-1.814,18.515,0.236,27.482c0.992,4.339-0.739,9.811-2.286,14.369"/>
				<path style="fill:none;stroke:#000000;stroke-miterlimit:10;" d="M267.571,259.674c0,1.406-1.14,2.546-2.546,2.546
					c-1.406,0-2.546-1.14-2.546-2.546c0-1.406,1.14-2.546,2.546-2.546C266.431,257.129,267.571,258.268,267.571,259.674z"/>
				<path style="fill:none;stroke:#000000;stroke-miterlimit:10;" d="M271.07,291.425c0,1.406-1.14,2.546-2.546,2.546
					c-1.406,0-2.546-1.14-2.546-2.546c0-1.406,1.14-2.546,2.546-2.546C269.931,288.88,271.07,290.019,271.07,291.425z"/>
				<path style="fill:none;stroke:#000000;stroke-miterlimit:10;" d="M276.162,325.734c0,1.406-1.14,2.546-2.546,2.546
					c-1.406,0-2.546-1.14-2.546-2.546c0-1.406,1.14-2.546,2.546-2.546C275.022,323.188,276.162,324.328,276.162,325.734z"/>
				<path style="fill:none;stroke:#000000;stroke-miterlimit:10;" d="M276.395,356.352c0,1.406-1.14,2.546-2.546,2.546
					c-1.406,0-2.546-1.14-2.546-2.546c0-1.406,1.14-2.546,2.546-2.546C275.255,353.807,276.395,354.946,276.395,356.352z"/>
				<circle style="fill:none;stroke:#000000;stroke-miterlimit:10;" cx="272.062" cy="390.337" r="2.546"/>
				<path style="fill:none;stroke:#000000;stroke-miterlimit:10;" d="M266.363,377.058c11.601,3.728,23.569,6.312,35.675,7.7"/>
				<path style="fill:none;stroke:#000000;stroke-miterlimit:10;" d="M288.298,375.835c7.251,1.283,14.604,1.989,21.967,2.109"/>
				<path style="fill:none;stroke:#000000;stroke-miterlimit:10;" d="M186.796,400.711c-4.19-0.255-8.188-2.683-10.347-6.283"/>
				<g>
					<g>
						<path style="fill:#DB7B5D;" d="M328.702,284.369c-5.9-7.989-11.831-16.011-18.735-23.126
							c-6.763-6.971-14.518-13.137-22.613-18.382c-8.457-5.479-17.92-9.735-27.877-10.395c-1.292-0.086-2.725-0.063-3.691,0.821
							c-0.966,0.883-0.873,2.915,0.388,3.222c-1.413-1.033-3.595-0.694-4.639,0.721c-1.045,1.415-0.779,3.672,0.565,4.799
							c-1.252,0.813-1.697,2.54-1.455,4.046c0.242,1.506,1.039,2.85,1.819,4.151c-0.271-0.41-0.713,0.241-0.833,0.72
							c-0.982,3.942,0.377,7.075,2.819,10.068c3.779,4.632,7.519,9.299,11.41,13.832c1.859,2.165,3.936,4.204,5.661,6.475
							c1.793,2.361,3.158,5.018,4.728,7.533c3.364,5.39,7.692,10.139,12.686,13.962c2.449,1.875,5.272,3.23,7.525,5.314
							c2.605,2.411,5.173,4.786,7.508,7.485"/>
						<path style="fill:none;stroke:#000000;stroke-miterlimit:10;" d="M275.35,267.453c-5.188-5.505-16.787-12.822-22.886-17.227"
							/>
						<path style="fill:none;stroke:#000000;stroke-miterlimit:10;" d="M252.1,242.029c6.706,2.658,14.137,5.686,20.366,9.381
							c3.985,2.364,7.742,5.137,11.197,8.264"/>
						<path style="fill:none;stroke:#000000;stroke-miterlimit:10;" d="M255.988,236.349c4.501,1.495,8.967,3.103,13.391,4.823
							c5.968,2.319,13.406,5.526,18.758,9.235"/>
					</g>
					<path style="fill:#FFFFFF;" d="M323.811,277.573l-28.558,35.323c0,0,25.841,30.689,33.466,39.029
						c12.374,13.534,37.754,17.891,45.972-3.377c8.217-21.268-3.652-54.987-3.652-54.987l-28.056-2.338L323.811,277.573z"/>
					<path style="fill:none;stroke:#000000;stroke-miterlimit:10;" d="M295.253,312.896c0,0,19.829,23.549,29.872,34.996"/>
					<line style="fill:none;stroke:#000000;stroke-miterlimit:10;" x1="353.693" y1="298.85" x2="323.811" y2="277.573"/>
					<circle style="fill:none;stroke:#000000;stroke-miterlimit:10;" cx="307.995" cy="306.321" r="2.247"/>
					<line style="fill:none;stroke:#000000;stroke-miterlimit:10;" x1="303.951" y1="323.751" x2="333.397" y2="284.398"/>
					<line style="fill:none;stroke:#000000;stroke-miterlimit:10;" x1="300.823" y1="306.007" x2="319.838" y2="324.796"/>
					<path style="fill:none;stroke:#000000;stroke-miterlimit:10;" d="M342.008,290.482c7.197,0.411,14.328,1.949,21.054,4.542"/>
					<path style="fill:none;stroke:#000000;stroke-miterlimit:10;" d="M344.49,284.628c3.471-0.599,7.005-0.832,10.525-0.696"/>
				</g>
				<g>
					<g>
						<path style="fill:#EB8B65;" d="M243.264,294.09c4.25-5.292,8.519-10.22,10.426-16.983c1.578-5.598,4.821-15.31,7.499-20.422
							c2.909-5.554,6.251-10.879,8.518-16.77c0.378-0.981,0.814-2.077,1.735-2.472c0.856-0.368,1.883,0.04,2.519,0.765
							c0.636,0.725,0.948,1.706,1.147,2.674c0.333,1.62,0.399,3.301,0.193,4.94c3.848-4.216,5.847-9.37,8.808-17.307
							c0.407-1.092,1.057-2.075,1.8-2.939c0.882-1.027,2.156-1.796,3.455-1.599c1.298,0.197,1.802,1.291,2.048,2.986
							c0.492-2.172,3.687-3.716,5.681-3.01c1.994,0.705,1.67,3.033,1.572,5.576c0.466-0.593,1.403-0.502,1.97-0.008
							c0.567,0.495,0.847,1.263,1.075,2.005c0.625,2.031,1.035,4.135,1.221,6.26c2.444,2.109,3.149,9.098,3.384,11.697
							c0.358,3.951,0.724,8.916-0.39,13.768c-2.282,9.937-5.793,19.853-10.706,28.908c-5.098,9.397-24.564,42.225-24.564,42.225"/>
						<path style="fill:none;stroke:#000000;stroke-miterlimit:10;" d="M275.68,245.582c-1.956,2.994-5.09,4.81-8.11,6.521"/>
						<path style="fill:none;stroke:#000000;stroke-miterlimit:10;" d="M291.414,227.426c-0.161,5.734-0.336,11.559-2,16.997
							c-1.409,4.604-3.831,8.753-6.088,12.947"/>
						<path style="fill:none;stroke:#000000;stroke-miterlimit:10;" d="M298.664,229.528c-0.288,7.715,1.162,14.854-1.028,22.193
							c-1.396,4.676-3.37,12.317-3.37,12.317"/>
						<path style="fill:none;stroke:#000000;stroke-miterlimit:10;" d="M302.93,237.784c0,0,1.278,9.918,0.975,14.404
							c-0.302,4.465-1.814,13.587-1.814,13.587"/>
					</g>
					<path style="fill:#FFFFFF;" d="M203.583,207.045c-18.02,4.806-35.189,7.999-45.069,25.622
						c-17.878,31.891-0.814,66.646,10.979,97.163c10.131,26.216,29.989,59.657,58.094,53.226
						c15.426-3.53,24.593-14.911,33.287-27.267c4.534-6.445,20.153-32.039,20.153-32.039l-35.964-33.448l-14.007,13.608L207.186,250
						"/>
					<path style="fill:none;stroke:#000000;stroke-miterlimit:10;" d="M176.447,345.502c11.161,21.983,28.467,42.743,51.14,37.555
						c15.426-3.53,24.593-14.911,33.287-27.267c4.534-6.445,20.153-32.039,20.153-32.039"/>
					<polyline style="fill:none;stroke:#000000;stroke-miterlimit:10;" points="245.063,290.304 231.055,303.911 207.186,250 					
						"/>
					<path style="fill:none;stroke:#000000;stroke-miterlimit:10;" d="M231.055,303.911c-10.147,9.139-24.272,17.719-30.268,30.47"
						/>
					<line style="fill:none;stroke:#000000;stroke-miterlimit:10;" x1="235.537" y1="299.558" x2="273.849" y2="335.42"/>
					<line style="fill:none;stroke:#000000;stroke-miterlimit:10;" x1="272.062" y1="315.414" x2="255.988" y2="335.42"/>
					<circle style="fill:none;stroke:#000000;stroke-miterlimit:10;" cx="263.329" cy="315.414" r="2.247"/>
					<path style="fill:none;stroke:#000000;stroke-miterlimit:10;" d="M146.781,294.897c0,0,3.356,19.992,8.964,33.224"/>
					<path style="fill:none;stroke:#000000;stroke-miterlimit:10;" d="M136.963,310.581c1.464,7.871,3.853,15.569,7.102,22.887"/>
				</g>
				<path style="fill:none;stroke:#000000;stroke-miterlimit:10;" d="M337.836,370.678c8.248,4.84,18.387,6.352,27.688,4.13"/>
				<path style="fill:none;stroke:#000000;stroke-miterlimit:10;" d="M349.763,383.605c8.383,2.368,17.704,1.205,25.248-3.15"/>
			</g>
			<g>
				<path style="fill:#EB8B65;" d="M290.127,167.715c-0.468-8.209-1.913-13.989-4.566-21.708
					c-3.808-11.08-8.188-28.653-19.849-34.078c-6.27-2.917-13.383-2.977-20.135-2.232c-10.092,1.113-19.871,5.401-27.31,12.346
					c-5.396,5.037-7.692,10.43-7.376,17.849c0.425,9.984,3.764,19.575,8.213,28.441c10.169,20.266,31.52,29.195,53.542,24.922
					C284.551,190.947,290.837,180.181,290.127,167.715z"/>
				<path style="fill:#9A4343;" d="M229.903,176.488c0.04-1.003-2.234-15.58-2.929-15.581c4.872,0.004,9.377-4.345,13.196-7.41
					c9.733-7.811,12.242-22.462,8.587-34.41c-0.081-0.264-0.155-0.584,0.027-0.791c0.11-0.125,0.284-0.169,0.447-0.206
					c6.141-1.378,12.714-1.293,18.579,0.99c3.829,1.491,7.319,3.979,9.872,7.175c1.358,1.7,2.451,3.6,3.189,5.657
					c4.43-6.754,2.935-19.104-1.653-25.004c-7.109-9.142-26.614-10.202-34.979-1.673c0,0-26.832-2.583-37.054,18.4
					s-7.977,32.712-3.735,39.821c4.241,7.109,14.874,19.561,14.874,19.561L229.903,176.488z"/>
				<path style="fill:#9A4343;" d="M244.24,105.235c-8.799-1.897-19.217-0.893-27.238,3.565
					c-8.417,4.679-15.479,12.919-19.026,22.893c-1.873,5.267-2.528,10.688-2.333,16.35c0.247,7.167,1.432,14.268-2.231,20.653
					c-3.327,5.799-8.741,8.006-14.398,9.395c-15.634,3.839-32.457,7.858-42.638,23.545c-3.832,5.905-7.07,15.421-2.338,21.379
					c1.83,2.304,4.043,4.505,4.689,7.375c0.872,3.877-1.347,7.683-2.461,11.498c-2.588,8.859,1.193,18.902,8.278,24.816
					c7.084,5.915,16.938,7.925,26.059,6.519c6.904-1.065,14.032-4.475,16.938-10.828c4.519-9.882-2.831-22.329,2.001-32.063
					c2.485-5.007,7.824-8.123,13.303-9.232c10.361-2.096,22.75-4.017,27.905-14.8c5.921-12.385,2.704-27.864-0.053-40.625"/>
				<path style="fill:#9A4343;" d="M202.787,129.447c-2.799,10.535-18.09,16.503-29.852,13.379
					c-11.762-3.125-15.54-14.16-12.741-24.695s14.943-19.344,26.705-16.22C198.661,105.036,205.586,118.913,202.787,129.447z"/>
				<path style="fill:none;stroke:#000000;stroke-miterlimit:10;" d="M270.861,146.781c1.413,3.42,3.704,6.525,6.63,8.986
					c0.418,0.351,0.855,0.697,1.152,1.141c0.672,1.001,0.498,2.337-0.109,3.374c-0.606,1.037-1.58,1.84-2.534,2.62"/>
				<path style="fill:none;stroke:#000000;stroke-width:1.5;stroke-miterlimit:10;" d="M272.602,136.959
					c0.549-1.461,1.948-2.51,3.47-2.859c1.522-0.348,3.14-0.059,4.567,0.576c1.427,0.634,2.684,1.595,3.859,2.622"/>
				<path style="fill:none;stroke:#000000;stroke-width:1.5;stroke-miterlimit:10;" d="M254.371,139.805
					c-2.923-0.662-6.049-0.395-8.817,0.755c-2.768,1.149-5.164,3.175-6.758,5.713"/>
				<path d="M258.756,151.081c0.595,1.884,0.06,3.733-1.196,4.13c-1.256,0.397-2.757-0.808-3.352-2.692
					c-0.596-1.884-0.06-3.733,1.196-4.13C256.66,147.992,258.16,149.197,258.756,151.081z"/>
				<path d="M282.178,145.554c0.595,1.884,0.06,3.733-1.196,4.13c-1.256,0.397-2.757-0.808-3.352-2.692
					c-0.595-1.884-0.06-3.733,1.196-4.13C280.081,142.465,281.582,143.67,282.178,145.554z"/>
				<path style="fill:#FFFFFF;" d="M276.604,169.138l-13.594-1.192c0,0-1.431,10.732,6.163,11.448
					C275.047,179.947,276.604,169.138,276.604,169.138z"/>
				<g>
					<path style="fill:#EB8B65;" d="M240.17,160.486c-2.229-4.16-7.183-6.263-10.534-5.38c-4.969,1.309-6.884,6.567-6.618,10.987
						c0.242,4.026,1.549,7.413,4.385,10.557c2.665,2.954,6.691,5.434,10.651,4.257c2.696-0.801,5.006-3.713,4.969-6.122"/>
					<line style="fill:none;stroke:#000000;stroke-miterlimit:10;" x1="240.17" y1="171.642" x2="228.019" y2="163.456"/>
					<path style="fill:none;stroke:#000000;stroke-miterlimit:10;" d="M243.264,175.786c-0.775,2.678-2.919,4.997-5.77,5.319
						c-2.608,0.295-5.366-0.348-7.591-1.722"/>
					<path style="fill:none;stroke:#000000;stroke-miterlimit:10;" d="M238.642,159.743c-1.109-1.414-3.791-4.295-6.101-5.058"/>
				</g>
				<path style="fill:none;stroke:#000000;stroke-miterlimit:10;" d="M249.011,190.389c6.073,3.203,17.643,5.1,27.593,1.89"/>
				<path style="fill:none;stroke:#2A2E3F;stroke-width:3;stroke-linecap:round;stroke-miterlimit:10;" d="M202.843,119.601
					c-4.838,5.968-7.469,14.749-7.659,19.685"/>
			</g>
		</g>
	</g>
	<g>
		<defs>
			<rect id="SVGID_00000002342571353824696560000015716362570155637146_" width="500" height="500"/>
		</defs>
		<clipPath id="SVGID_00000029735759220255018420000011768054498033202615_">
			<use xlink:href="#SVGID_00000002342571353824696560000015716362570155637146_"  style="overflow:visible;"/>
		</clipPath>
		<g style="clip-path:url(#SVGID_00000029735759220255018420000011768054498033202615_);">
			<path style="fill:#E88567;" d="M113.347,135.95c0.608-2.513-1.464-6.084-3.978-7.048c1.206-1.923,1.621-4.148,0.828-6.531
				c-0.793-2.383-3.567-4.911-6.127-4.671c0.91-1.861,1.793-3.416,1.325-5.397c-1.926-8.158-15.142-6.165-21.294-5.466
				c-4.055,0.46-8.217,1.665-12.284,1.355L50.249,123.57l-52.035,5.352l8.682,48.094c0,0,30.483-9.04,36.079-9.832
				c5.596-0.792,11.386,0.379,19.204-0.727c6.326-0.894,16.085-3.217,25.272-6.128c3.064-0.971,3.375-1.697,6.491-2.475
				c2.761-0.689,5.542-1.385,8.135-2.573c3.169-1.452,9.844-3.899,10.064-9.227c0.074-1.791-0.422-4.236-1.772-5.17
				C112.437,139.268,112.957,137.562,113.347,135.95z"/>
			<path style="fill:none;stroke:#000000;stroke-miterlimit:10;" d="M110.369,140.885c0,0-6.16,3.796-12.849,5.671
				c-4.971,1.393-8.203,1.804-9.348,1.238c-1.145-0.566-3.871-3.805-2.859-6.868c0.561-1.699,1.526-2.954,1.964-3.816
				c0,0,16.719-5.005,22.04-8.206"/>
			<path style="fill:none;stroke:#000000;stroke-miterlimit:10;" d="M88.359,148.023c-0.972,1.579-0.749,3.606,0.316,5.077
				c1.065,1.471,2.866,2.412,4.773,2.796c1.907,0.384,3.917,0.252,5.856-0.096"/>
			<path style="fill:none;stroke:#000000;stroke-miterlimit:10;" d="M87.957,137.033c-2.33,0.137-4.665-0.877-5.971-2.594
				c-1.306-1.716-1.541-4.079-0.6-6.041c0.365-0.762,0.889-1.456,1.459-2.109l21.226-8.588"/>
			<path style="fill:#E88567;" d="M-1.787,128.923c18.42-2.499,32.464-4.738,36.516-6.161c1.898-0.667,3.539-0.89,5.025-2.238
				c1.787-1.621,3.477-3.344,5.283-4.948c4.676-4.152,9.713-7.676,14.7-11.43c1.801-1.356,3.53-2.873,4.862-4.694
				c1.495-2.044,2.077-4.401,3.041-6.689c1.822-4.325,3.046-10.018,5.774-10.166c5.267-0.287,7.23,4.734,6.669,10.756
				c-0.669,7.189-4.632,13.951-5.68,21.126c-1.602,10.964-5.285,21.776-14.5,28.665"/>
			<path style="fill:none;stroke:#000000;stroke-miterlimit:10;" d="M75.992,108.03c-0.682,2.127-1.27,4.268-1.588,6.448
				c-1.602,10.964-5.285,21.776-14.5,28.665"/>
			<path style="fill:none;stroke:#000000;stroke-miterlimit:10;" d="M70.802,84.994c0,0,1.451,0.608,1.45,1.494
				c-0.001,1.205-0.452,2.363-0.959,3.456c-0.147,0.316-0.304,0.637-0.555,0.878c-0.608,0.583-1.632,0.528-2.344,0.078"/>
			<path style="fill:none;stroke:#000000;stroke-miterlimit:10;" d="M82.844,126.288c-3.763-1.377-5.459-4.849-4.431-8.905
				c0.678-2.675,2.897-3.682,5.601-4.462c4.381-1.263,7.491-3.517,12.037-4.382"/>
			<polyline style="fill:#B78E7E;" points="-12.417,128.904 29.147,122.054 41.023,177.016 -9.077,198.874 			"/>
			<line style="fill:none;stroke:#000000;stroke-miterlimit:10;" x1="28.786" y1="182.355" x2="17.34" y2="124"/>
			<line style="fill:none;stroke:#000000;stroke-miterlimit:10;" x1="62.417" y1="75.714" x2="51.754" y2="64.755"/>
			<line style="fill:none;stroke:#000000;stroke-miterlimit:10;" x1="72.285" y1="72.037" x2="69.113" y2="55.928"/>
			<line style="fill:none;stroke:#000000;stroke-miterlimit:10;" x1="83.769" y1="71.24" x2="87.74" y2="56.791"/>
		</g>
		<g style="clip-path:url(#SVGID_00000029735759220255018420000011768054498033202615_);">
			<path style="fill:#F2A781;" d="M382.931,259.45c-1.422-2.159-0.681-6.221,1.359-7.978c-1.786-1.401-2.929-3.354-2.989-5.865
				c-0.06-2.511,1.695-5.828,4.185-6.468c-1.486-1.443-2.843-2.608-3.073-4.63c-0.948-8.328,12.163-10.925,18.188-12.35
				c3.971-0.939,8.296-1.214,12.018-2.881l25.5,7.172l50.777-12.571l8.104,48.195c0,0-31.744,1.808-37.278,2.956
				c-5.534,1.149-10.586,4.209-18.317,5.815c-6.255,1.299-16.225,2.415-25.855,2.785c-3.212,0.124-3.75-0.455-6.946-0.132
				c-2.832,0.286-5.684,0.572-8.526,0.331c-3.473-0.294-10.582-0.338-12.592-5.277c-0.676-1.66-1.036-4.129-0.082-5.464
				C384.911,262.265,383.843,260.835,382.931,259.45z"/>
			<path style="fill:none;stroke:#000000;stroke-miterlimit:10;" d="M387.403,263.087c0,0,7.081,1.488,14.01,0.988
				c5.149-0.372,8.33-1.078,9.216-1.999c0.886-0.921,2.355-4.891,0.366-7.43c-1.103-1.408-2.435-2.263-3.14-2.926
				c0,0-17.426,0.947-23.516-0.264"/>
			<path style="fill:none;stroke:#000000;stroke-miterlimit:10;" d="M410.53,262.355c1.449,1.157,1.925,3.14,1.42,4.884
				c-0.504,1.744-1.881,3.24-3.545,4.246c-1.664,1.006-3.6,1.563-5.543,1.892"/>
			<path style="fill:none;stroke:#000000;stroke-miterlimit:10;" d="M407.19,251.878c2.239-0.66,4.093-2.404,4.741-4.461
				c0.648-2.057,0.07-4.359-1.479-5.888c-0.601-0.593-1.329-1.069-2.087-1.491l-22.88-0.898"/>
			<path style="fill:#F2A781;" d="M488.895,213.879c-6.937,1.481-13.884,2.928-20.855,4.244c-4.68,0.883-9.391,1.804-14.17,1.872
				c-4.859,0.07-9.077-1.039-13.554-2.832c-5.806-2.325-11.737-3.936-17.701-5.782c-2.154-0.667-4.294-1.509-6.163-2.772
				c-2.098-1.418-3.444-3.438-5.125-5.265c-3.178-3.453-6.256-8.396-8.873-7.613c-5.054,1.512-5.202,6.901-2.636,12.379
				c3.063,6.539,9.079,11.561,12.493,17.958c5.217,9.775,12.342,18.704,23.344,22.068"/>
			<path style="fill:none;stroke:#000000;stroke-miterlimit:10;" d="M408.635,220.537c1.362,1.771,2.639,3.587,3.676,5.53
				c5.217,9.775,12.342,18.704,23.344,22.068"/>
			<path style="fill:none;stroke:#000000;stroke-miterlimit:10;" d="M405.724,197.104c0,0-1.159,1.063-0.859,1.897
				c0.408,1.134,1.224,2.071,2.072,2.928c0.245,0.248,0.501,0.496,0.82,0.638c0.77,0.343,1.714-0.055,2.233-0.72"/>
			<path style="fill:none;stroke:#000000;stroke-miterlimit:10;" d="M408.366,240.037c3.075-2.569,3.496-6.41,1.157-9.879
				c-1.543-2.288-3.973-2.485-6.78-2.303c-4.55,0.294-8.239-0.775-12.81-0.05"/>
			<polyline style="fill:#FFFFFF;" points="488.696,214.852 451.238,219.347 458.487,278.589 506.782,273.475 			"/>
			<polyline style="fill:#2A2E3F;" points="519.525,207.71 458.196,218.315 466.229,283.968 519.525,278.325 			"/>
			<line style="fill:none;stroke:#000000;stroke-miterlimit:10;" x1="481.684" y1="282.332" x2="473.531" y2="215.663"/>
			<line style="fill:none;stroke:#000000;stroke-miterlimit:10;" x1="389.258" y1="185.986" x2="376.964" y2="173.946"/>
			<line style="fill:none;stroke:#000000;stroke-miterlimit:10;" x1="398.004" y1="179.593" x2="392.307" y2="163.883"/>
			<line style="fill:none;stroke:#000000;stroke-miterlimit:10;" x1="406.629" y1="179.65" x2="411.017" y2="163.826"/>
		</g>
		<g style="clip-path:url(#SVGID_00000029735759220255018420000011768054498033202615_);">
			<path style="fill:#EF9673;" d="M126.373,413.545c0.832-2.387-0.841-6.06-3.195-7.239c1.358-1.755,1.975-3.88,1.432-6.275
				s-1.541-3.414-4.054-3.426c1.063-1.723,2.155-4.108,1.89-6.08c-1.091-8.122-15.684-8.2-21.736-8.111
				c-3.99,0.059-8.155,0.832-12.082,0.14l-22.461,12.893l-51.142,0.217l3.835,47.626c0,0,30.526-5.872,36.047-6.106
				c5.521-0.234,11.042,1.46,18.755,1.135c6.241-0.263,15.959-1.588,25.177-3.538c3.075-0.651,3.447-1.327,6.553-1.785
				c2.753-0.406,5.525-0.816,8.162-1.724c3.223-1.109,9.951-2.849,10.677-8.013c0.244-1.735-0.004-4.162-1.228-5.2
				C125.169,416.687,125.839,415.076,126.373,413.545z"/>
			<path style="fill:none;stroke:#000000;stroke-miterlimit:10;" d="M122.233,418.148c0,0-5.074,1.995-11.854,2.406
				c-3.802,0.23-9.414-0.049-10.474-0.71c-1.06-0.661-2.546-1.217-2.816-3.902c-0.171-1.698,0.377-3.829,1.926-5.126
				c0,0,16.093,0.134,23.461-4.014"/>
			<path style="fill:none;stroke:#000000;stroke-miterlimit:10;" d="M100.162,420.171c-2.218,2.917-0.976,6.634,1.909,7.86
				c1.737,0.738,4.834,0.886,6.722,0.902c2.432,0.02,4.865-0.151,7.27-0.511"/>
			<path style="fill:none;stroke:#000000;stroke-miterlimit:10;" d="M99.016,410.816c0,0-1.953-0.181-3.011-1.748
				c-1.18-1.748-1.108-4.116-0.005-5.936c0.428-0.706,1.005-1.331,1.622-1.912l22.935-4.614"/>
			<path style="fill:#EF9673;" d="M15.025,395.665c18.162-0.665,28.314-0.901,32.393-1.897c1.91-0.466,8.452-3.807,10.364-5.194
				c3.845-2.791,11.899-6.831,16.085-9.071c7.341-3.929,8.192-4.007,13.163-11.236c3.09-4.494,4.18-11.041,7.314-10.177
				c3.947,1.089,5.082,4.176,4.712,8.121c-0.586,6.252-3.611,12.118-8.31,20.262c-5.415,9.382-7.435,23.127-17.062,28.945"/>
			<path style="fill:none;stroke:#000000;stroke-miterlimit:10;" d="M92.706,382.797c-0.868,2.004-3.518,6.009-4.037,8.099
				c-2.61,10.514-5.357,18.703-14.984,24.522"/>
			<path style="fill:#BC5058;" d="M90.892,360.741c0,0,2.186,0.951,2.1,1.813c-0.116,1.173-0.666,2.256-1.265,3.271
				c-0.173,0.293-0.357,0.591-0.625,0.801c-0.648,0.509-2.101-0.091-2.751-0.598"/>
			<path style="fill:none;stroke:#000000;stroke-miterlimit:10;" d="M97.621,401.22c-3.228-1.556-4.973-4.972-3.056-8.345
				c1.272-2.24,3.578-2.85,5.911-3.423c1.766-0.434,3.48-1.046,5.209-1.611c2.561-0.836,5.123-1.671,7.685-2.505"/>
			<path style="fill:#F277A9;" d="M-25.553,480.289c0,0,49.965-12.91,54.051-17.036s4.861-11.977,4.861-11.977l18.705-4.711
				l-6.283-54.616l-17.157,1.118c0,0-5.683-4.533-10.499-5.008c-4.815-0.475-41.754,3.777-41.754,3.777"/>
			<line style="fill:none;stroke:#000000;stroke-miterlimit:10;" x1="33.36" y1="451.276" x2="29.104" y2="393.102"/>
			<line style="fill:none;stroke:#000000;stroke-miterlimit:10;" x1="107.151" y1="354.128" x2="113.84" y2="338.273"/>
			<line style="fill:none;stroke:#000000;stroke-miterlimit:10;" x1="97.06" y1="349.646" x2="96.43" y2="333.117"/>
			<line style="fill:none;stroke:#000000;stroke-miterlimit:10;" x1="86.885" y1="351.746" x2="80.279" y2="336.712"/>
		</g>
		<g style="clip-path:url(#SVGID_00000029735759220255018420000011768054498033202615_);">
			<path style="fill:#B75A3D;" d="M482.099,108.108c0,0-27.02-6.45-32.137-9.341c-3.791-2.142-8.646-4.532-13.676-7.212
				c-5.125-2.73-11.011-3.715-15.007-8.343c-3.443-3.988-4.559-9.035-5.038-14.132c-0.088-0.936-0.574-1.464-1.475-1.62
				c-2.632-0.456-5.336,1.084-6.808,3.313c-2.949,4.465-1.48,11.057,0.154,15.599c0,0-8.753-1.652-17.754-1.06
				c-3.285,0.216-8.561,1.986-10.35,5.414c-1.262,2.419-0.325,5.309-0.325,5.309s-3.324,1.839-4.245,5.68
				c-0.789,3.29-0.444,6.487,2.751,7.601c-0.768-0.268-3.011,2.246-3.35,2.81c-0.804,1.336-0.994,3.049-0.526,4.534
				c0.704,2.233,2.683,3.92,4.902,4.667c-1.523,0.915-1.949,3.062-1.333,4.729c0.615,1.667,2.032,2.91,3.531,3.864
				c5.797,3.688,13.381,5.238,20.017,6.648c10.26,2.179,27.915,4.158,31.195,4.119c3.65-0.044,28.446,6.602,35.915,8.39"/>
			<path style="fill:none;stroke:#000000;stroke-miterlimit:10;" d="M408.111,86.373c4.871-0.107,16.166,1.09,16.166,1.09"/>
			<path style="fill:none;stroke:#000000;stroke-miterlimit:10;" d="M379.786,96.009c0.958-0.471,2.061-0.527,3.128-0.557
				c5.591-0.157,11.195,0.153,16.734,0.925"/>
			<path style="fill:none;stroke:#000000;stroke-miterlimit:10;" d="M378.044,109.245c5.537-0.296,11.096-0.191,16.618,0.312"/>
			<path style="fill:none;stroke:#000000;stroke-miterlimit:10;" d="M379.049,121.344c4.954,0.315,9.903,0.747,14.839,1.297"/>
			<path style="fill:none;stroke:#000000;stroke-miterlimit:10;" d="M416.336,70.014c-0.686,0.107-1.502,0.279-2.145,0.541
				c-0.324,0.132-0.655,0.295-0.861,0.578c-0.125,0.173-0.196,0.38-0.24,0.588c-0.183,0.876,0.082,1.777,0.344,2.632
				c0.057,0.187,0.116,0.377,0.23,0.535c0.234,0.326,0.655,0.458,1.054,0.499c0.824,0.085,2.474-0.422,2.474-0.422"/>
			<polyline style="fill:#5B654F;" points="512.616,113.442 454.553,99.641 440.937,151.534 513.146,180.428 			"/>
			<line style="fill:none;stroke:#000000;stroke-miterlimit:10;" x1="471.307" y1="103.623" x2="459.316" y2="158.888"/>
			<line style="fill:none;stroke:#000000;stroke-miterlimit:10;" x1="410.06" y1="53.27" x2="408.341" y2="36.148"/>
			<line style="fill:none;stroke:#000000;stroke-miterlimit:10;" x1="420.871" y1="53.969" x2="426.568" y2="38.259"/>
			<line style="fill:none;stroke:#000000;stroke-miterlimit:10;" x1="428.079" y1="59.48" x2="442.522" y2="48.495"/>
		</g>
		<g style="clip-path:url(#SVGID_00000029735759220255018420000011768054498033202615_);">
			<path style="fill:#EB8B65;" d="M505.171,413.087c0,0-27.549-4.071-32.943-6.738c-3.996-1.976-9.075-4.106-14.36-6.544
				c-5.384-2.483-11.342-2.893-15.803-7.668c-3.844-4.114-5.487-9.712-6.5-15.443c-0.186-1.053-0.725-1.594-1.638-1.663
				c-2.665-0.201-5.191,1.874-6.421,4.582c-2.462,5.426-0.306,12.735,1.798,17.698c0,0-8.878-0.822-17.767,0.935
				c-3.244,0.641-8.304,3.287-9.721,7.396c-1,2.899,0.237,6.069,0.237,6.069s-3.112,2.489-3.623,6.962
				c-0.438,3.831,0.243,7.421,3.537,8.302c-0.793-0.212-2.757,2.914-3.035,3.595c-0.659,1.615-0.667,3.583-0.045,5.213
				c0.936,2.452,3.081,4.129,5.367,4.71c-1.418,1.223-1.615,3.713-0.827,5.531c0.788,1.819,2.328,3.061,3.919,3.963
				c6.154,3.49,13.859,4.338,20.607,5.139c10.432,1.239,28.198,1.361,31.455,0.921c3.625-0.489,28.983,4.073,36.599,5.204"/>
			<path style="fill:none;stroke:#000000;stroke-miterlimit:10;" d="M429.304,397.311c4.832-0.708,16.191-0.708,16.191-0.708"/>
			<path style="fill:none;stroke:#000000;stroke-miterlimit:10;" d="M402.152,411.667c0.903-0.651,1.994-0.847,3.052-1.009
				c5.543-0.851,11.148-1.174,16.738-0.965"/>
			<path style="fill:none;stroke:#000000;stroke-miterlimit:10;" d="M401.816,426.909c5.475-1.003,11.014-1.553,16.559-1.647"/>
			<path style="fill:none;stroke:#000000;stroke-miterlimit:10;" d="M404.091,440.529c4.96-0.239,9.927-0.344,14.893-0.314"/>
			<path style="fill:none;stroke:#000000;stroke-miterlimit:10;" d="M435.758,377.742c-0.671,0.204-1.464,0.497-2.076,0.873
				c-0.309,0.189-0.62,0.414-0.795,0.76c-0.107,0.211-0.155,0.455-0.176,0.697c-0.09,1.017,0.269,2.008,0.62,2.948
				c0.077,0.205,0.155,0.414,0.285,0.58c0.267,0.341,0.7,0.441,1.101,0.44c0.828-0.003,2.415-0.778,2.415-0.778"/>
			<polyline style="fill:#D9BA75;" points="536.08,415.1 476.886,407.499 468.818,460.538 533.311,478.734 			"/>
			<line style="fill:none;stroke:#000000;stroke-miterlimit:10;" x1="493.966" y1="409.692" x2="487.87" y2="465.914"/>
			<line style="fill:none;stroke:#000000;stroke-miterlimit:10;" x1="471.03" y1="445.994" x2="489.551" y2="450.411"/>
			<line style="fill:none;stroke:#000000;stroke-miterlimit:10;" x1="481.52" y1="437.803" x2="480.546" y2="444.728"/>
			<line style="fill:none;stroke:#000000;stroke-miterlimit:10;" x1="424.163" y1="365.843" x2="417.473" y2="349.988"/>
			<line style="fill:none;stroke:#000000;stroke-miterlimit:10;" x1="434.699" y1="363.325" x2="435.513" y2="346.633"/>
			<line style="fill:none;stroke:#000000;stroke-miterlimit:10;" x1="444.428" y1="363.461" x2="451.034" y2="348.427"/>
		</g>
		<g style="clip-path:url(#SVGID_00000029735759220255018420000011768054498033202615_);">
			<path style="fill:#F2A781;" d="M8.663,253.179c12.738,3.15,25.496,6.304,38.454,8.293c7.424,1.139,17.24,2.856,24.38-0.549
				c4.645-2.215,7.529-5.626,9.993-10.073c0.453-0.817,1.094-1.098,1.955-0.869c2.513,0.669,4.29,3.186,4.701,5.823
				c0.824,5.283-3.116,10.684-6.381,14.151c0,0,6.91,1.823,14.643,6.071c2.822,1.551,6.983,5.897,7.729,10.186
				c0.467,2.686-1.11,5.344-1.11,5.344s2.068,2.794,1.346,6.673c-0.619,3.323-2.025,5.262-5.3,4.961
				c0.788,0.072,1.767,3.287,1.841,3.941c0.177,1.549-0.34,3.188-1.349,4.348c-1.518,1.745-3.945,2.466-6.209,2.233
				c0.982,1.461,0.848,2.287-0.364,3.552c-1.212,1.265-2.965,1.815-4.674,2.066c-6.609,0.972-14.294,0.566-20.733-0.883
				c-9.956-2.241-26.381-7.712-29.269-9.099c-3.215-1.544-27.829-5.704-35.158-7.152"/>
			<path style="fill:none;stroke:#000000;stroke-miterlimit:10;" d="M81.766,269.954c-4.802-1.417-13.126-2.833-13.126-2.833"/>
			<path style="fill:none;stroke:#000000;stroke-miterlimit:10;" d="M102.947,291.488c-1.545-1.684-5.031-4.568-8.012-6.078
				c-3.175-1.608-6.266-3.441-9.681-4.475"/>
			<path style="fill:none;stroke:#000000;stroke-miterlimit:10;" d="M99.23,303.183c-4.784-2.551-9.748-4.746-14.839-6.562"/>
			<path style="fill:none;stroke:#000000;stroke-miterlimit:10;" d="M93.497,313.793c-4.512-1.754-9.067-3.399-13.658-4.932"/>
			<path style="fill:none;stroke:#000000;stroke-miterlimit:10;" d="M81.033,251.66c0.565,0.38,1.218,0.873,1.682,1.377
				c0.234,0.254,0.462,0.538,0.531,0.882c0.042,0.209,0.021,0.427-0.023,0.635c-0.189,0.874-0.784,1.585-1.359,2.257
				c-0.125,0.146-0.254,0.295-0.418,0.393c-0.337,0.2-0.763,0.147-1.133,0.02c-0.763-0.262-2.021-1.404-2.021-1.404"/>
			<polyline style="fill:#FFFFFF;" points="-18.843,240.661 36.552,258.318 22.29,309.921 -42.063,299.703 			"/>
			<line style="fill:none;stroke:#000000;stroke-miterlimit:10;" x1="20.568" y1="253.223" x2="3.28" y2="306.902"/>
			<line style="fill:none;stroke:#000000;stroke-miterlimit:10;" x1="73.177" y1="246.116" x2="66.488" y2="230.261"/>
			<line style="fill:none;stroke:#000000;stroke-miterlimit:10;" x1="83.713" y1="243.597" x2="82.246" y2="226.697"/>
			<line style="fill:none;stroke:#000000;stroke-miterlimit:10;" x1="92.243" y1="244.158" x2="99.26" y2="230.261"/>
		</g>
	</g>
</g>
</svg>
