<?xml version="1.0" encoding="utf-8"?>
<!-- Generator: Adobe Illustrator 27.5.0, SVG Export Plug-In . SVG Version: 6.00 Build 0)  -->
<svg version="1.1" xmlns="http://www.w3.org/2000/svg" xmlns:xlink="http://www.w3.org/1999/xlink" x="0px" y="0px"
	 viewBox="0 0 500 500" style="enable-background:new 0 0 500 500;" xml:space="preserve">
<g id="BACKGROUND">
	<rect style="fill:#F4EAE0;" width="500" height="500"/>
</g>
<g id="OBJECTS">
	<g>
		<path style="fill:#EDDFD3;" d="M233.285,190.918c-17.939-23.691-43.615-48.487-73.353-55.684
			c-25.932-6.275-56.414,0.607-69.122,23.265c-8.682,15.481-6.82,35.762-4.671,53.381c4.65,38.12,18.37,74.783-5.097,114.149
			c-8.184,13.729-18.936,24.351-27.846,37.106c-9.825,14.063-9.18,31.499-1.213,46.398c16.731,31.29,49.377,40.439,82.7,42.908
			c41.719,3.091,83.317-10.586,125.084-13.481c20.344-1.41,40.979-0.058,60.841,4.819c21.453,5.268,42.507,12.968,64.518,15.09
			c16.727,1.613,38.503-1.069,51.56-13.923c13.565-13.354,15.722-38.937,11.649-57.073c-4.643-20.675-16.848-38.499-31.107-53.025
			c-17.186-17.508-37.192-34.514-58.845-44.467c-34.959-16.069-68.69-37.256-96.825-65.239
			C251.294,214.934,242.323,202.853,233.285,190.918z"/>
		<g>
			<path style="fill:#FFFFFF;" d="M145.322,359.334c-2.53-5.514-8.059-8.675-13.842-8.706c0.971-4.844,0.2-9.575-2.402-13.526
				c-2.799-4.249-6.924-6.242-11.79-5.748c-2.824,0.287-6.841,2.107-9.522,4.921c-5.563-14.797-25.129-19.016-36.591-9.683
				c-5.438,4.428-9.656,11.059-11.675,17.994c-4.243-4.948-11.675-5.886-17.465-3.234c-5.79,2.652-10.002,8.308-12.378,14.503
				c-2.375,6.195-4.072,13.073-4.533,19.743h121.079C147.769,369.603,147.341,363.735,145.322,359.334z"/>
			<path style="fill:none;stroke:#000000;stroke-miterlimit:10;" d="M59.512,344.456c2.432,2.639,4.05,6.022,5.124,9.532
				c1.073,3.51,1.632,7.17,2.187,10.812"/>
			<path style="fill:none;stroke:#000000;stroke-miterlimit:10;" d="M108.146,335.841c-3.6,3.814-6.153,8.725-7.273,13.989"/>
			<path style="fill:none;stroke:#000000;stroke-miterlimit:10;" d="M131.919,350.637c-7.121-0.486-13.083,4.624-16.09,9.938"/>
		</g>
		<g>
			<path style="fill:#FFFFFF;" d="M416.668,73.239c-1.589-11.358-7.07-22.413-16.109-28.904c-9.039-6.49-21.772-7.654-30.993-1.452
				c-7.546,5.074-12.985,13.962-15.503,23.03c-3.942-6.294-12.037-8.957-19.028-7.216c-6.991,1.741-12.761,7.32-16.057,14.009
				c-3.303,6.703-4.317,14.604-2.862,21.991h140.385C451.156,62.077,423.032,65.098,416.668,73.239z"/>
			<path style="fill:none;stroke:#000000;stroke-miterlimit:10;" d="M354.063,66.095c3.313,5.631,5.662,11.881,6.903,18.366"/>
			<path style="fill:none;stroke:#000000;stroke-miterlimit:10;" d="M417.021,72.61c-3.415,3.798-5.668,8.063-6.579,12.456"/>
		</g>
		<path style="fill:none;stroke:#F7B154;stroke-width:1.5;stroke-linejoin:round;stroke-miterlimit:10;" d="M393.253,176.267
			c-8.726,4.092-8.331,3.698-12.423,12.423c-4.092-8.726-3.698-8.331-12.423-12.423c8.725-4.092,8.331-3.698,12.423-12.423
			C384.922,172.569,384.527,172.174,393.253,176.267z"/>
		<path style="fill:none;stroke:#F7B154;stroke-width:1.5;stroke-linejoin:round;stroke-miterlimit:10;" d="M141.899,80.217
			c-10.563,4.954-10.085,4.476-15.039,15.039c-4.954-10.563-4.476-10.085-15.039-15.039c10.563-4.954,10.085-4.476,15.039-15.039
			C131.814,75.741,131.336,75.263,141.899,80.217z"/>
		<path style="fill:none;stroke:#F7B154;stroke-width:1.5;stroke-linejoin:round;stroke-miterlimit:10;" d="M409.914,147.618
			c-5.378,2.522-5.135,2.279-7.657,7.657c-2.522-5.378-2.279-5.135-7.657-7.657c5.378-2.522,5.135-2.279,7.657-7.657
			C404.779,145.339,404.536,145.096,409.914,147.618z"/>
		<g>
			
				<line style="fill:none;stroke:#8787DD;stroke-width:1.5;stroke-linejoin:round;stroke-miterlimit:10;" x1="114.778" y1="290.277" x2="114.778" y2="297.504"/>
			
				<line style="fill:none;stroke:#8787DD;stroke-width:1.5;stroke-linejoin:round;stroke-miterlimit:10;" x1="114.778" y1="302.592" x2="114.778" y2="309.819"/>
			
				<line style="fill:none;stroke:#8787DD;stroke-width:1.5;stroke-linejoin:round;stroke-miterlimit:10;" x1="124.55" y1="300.048" x2="117.323" y2="300.048"/>
			
				<line style="fill:none;stroke:#8787DD;stroke-width:1.5;stroke-linejoin:round;stroke-miterlimit:10;" x1="112.234" y1="300.048" x2="105.007" y2="300.048"/>
		</g>
		<g>
			
				<line style="fill:none;stroke:#8787DD;stroke-width:1.5;stroke-linejoin:round;stroke-miterlimit:10;" x1="417.021" y1="260.963" x2="417.021" y2="268.19"/>
			
				<line style="fill:none;stroke:#8787DD;stroke-width:1.5;stroke-linejoin:round;stroke-miterlimit:10;" x1="417.021" y1="273.278" x2="417.021" y2="280.505"/>
			
				<line style="fill:none;stroke:#8787DD;stroke-width:1.5;stroke-linejoin:round;stroke-miterlimit:10;" x1="426.792" y1="270.734" x2="419.565" y2="270.734"/>
			
				<line style="fill:none;stroke:#8787DD;stroke-width:1.5;stroke-linejoin:round;stroke-miterlimit:10;" x1="414.477" y1="270.734" x2="407.25" y2="270.734"/>
		</g>
		<g>
			
				<line style="fill:none;stroke:#8787DD;stroke-width:1.5;stroke-linejoin:round;stroke-miterlimit:10;" x1="354.063" y1="120.419" x2="354.063" y2="127.646"/>
			
				<line style="fill:none;stroke:#8787DD;stroke-width:1.5;stroke-linejoin:round;stroke-miterlimit:10;" x1="354.063" y1="132.734" x2="354.063" y2="139.961"/>
			
				<line style="fill:none;stroke:#8787DD;stroke-width:1.5;stroke-linejoin:round;stroke-miterlimit:10;" x1="363.834" y1="130.19" x2="356.607" y2="130.19"/>
			
				<line style="fill:none;stroke:#8787DD;stroke-width:1.5;stroke-linejoin:round;stroke-miterlimit:10;" x1="351.519" y1="130.19" x2="344.292" y2="130.19"/>
		</g>
		<g>
			<path style="fill:#FFFFFF;" d="M455.616,408.034c-7.162-3.278-16.636-1.599-21.323,4.731c-0.067-6.232-2.488-10.982-5.967-15.113
				c-3.61-4.286-8.185-6.007-13.789-6.077c-17.879-0.222-36.535,17.45-37.628,34.902h91.96
				C467.528,418.715,462.778,411.312,455.616,408.034z"/>
			<path style="fill:none;stroke:#000000;stroke-miterlimit:10;" d="M434.227,413.014c-0.056,2.283-0.186,4.565-0.392,6.84"/>
		</g>
		<g>
			
				<line style="fill:none;stroke:#8787DD;stroke-width:1.5;stroke-linejoin:round;stroke-miterlimit:10;" x1="61.365" y1="216.268" x2="61.365" y2="223.495"/>
			
				<line style="fill:none;stroke:#8787DD;stroke-width:1.5;stroke-linejoin:round;stroke-miterlimit:10;" x1="61.365" y1="228.583" x2="61.365" y2="235.811"/>
			
				<line style="fill:none;stroke:#8787DD;stroke-width:1.5;stroke-linejoin:round;stroke-miterlimit:10;" x1="71.136" y1="226.039" x2="63.909" y2="226.039"/>
			
				<line style="fill:none;stroke:#8787DD;stroke-width:1.5;stroke-linejoin:round;stroke-miterlimit:10;" x1="58.821" y1="226.039" x2="51.594" y2="226.039"/>
		</g>
	</g>
	<g>
		<defs>
			<rect id="SVGID_1_" width="500" height="500"/>
		</defs>
		<clipPath id="SVGID_00000140706368255679504190000002992777086811182483_">
			<use xlink:href="#SVGID_1_"  style="overflow:visible;"/>
		</clipPath>
		<g style="clip-path:url(#SVGID_00000140706368255679504190000002992777086811182483_);">
			<g>
				<path style="fill:#181A28;" d="M226.045,261.809c2.783,0.287,5.564,0.878,8.3,1.668c8.673,2.502,17.052,5.661,26.033,2.663
					c7.724-2.578,14.031-8.693,16.695-16.405c0.778-2.253,1.307-4.709,2.921-6.464c2.887-3.14,7.855-2.762,11.887-4.155
					c17.548-6.058,15.357-37.353,1.96-46.403c-9.757-6.591-14.953-18.184-15.478-29.726c-0.278-6.103,1.418-11.797,1.448-17.91
					c0.037-7.432-0.889-14.858-3.752-21.767c-2.5-6.032-8.953-9.843-14.912-11.728c-24.761-7.83-56.021-0.143-63.497,33.288
					c-1.86,8.318-2.724,16.946-11.525,20.832c-2.772,1.224-5.762,1.984-8.355,3.551c-4.306,2.603-7.166,7.451-7.363,12.48
					c-0.288,7.376-6.526,9.91-12.616,11.899c-6.025,1.968-14.316,6.615-17.317,12.429c-3.25,6.295-0.643,15.199,4.108,19.954
					c4.596,4.6,11.419,6.911,14.914,12.395c4.556,7.147,2.137,15.841,5.409,23.261c5.293,12.002,21.789,17.919,33.206,11.191
					c4.492-2.648,7.853-6.626,12.647-8.817C215.687,261.794,220.87,261.276,226.045,261.809z"/>
				<path style="fill:#EB8B65;" d="M289.934,166.589c-2.241-6.369-4.364-12.783-6.836-19.067c-1.907-4.846-4.078-9.466-8.424-12.624
					c-7.281-5.292-17.658-3.4-25.487-0.411c-9.435,3.602-19.368,10.812-22.4,20.84c-1.84,6.087-1.12,12.749,1.097,18.709
					c3.11,8.359,8.496,16.281,16.209,20.894c7.369,4.407,16.027,6.686,24.609,6.537c7.414-0.128,15.532-2.579,20.501-8.369
					C295.862,185.338,292.987,175.268,289.934,166.589z"/>
				<path style="fill:none;stroke:#000000;stroke-miterlimit:10;" d="M275.424,161.73c0.427,1.654,1.436,3.107,2.626,4.333
					c1.19,1.225,2.566,2.251,3.897,3.321c1.121,0.902,1.784,1.852,1.194,3.317c-0.563,1.399-1.724,2.674-2.988,3.469"/>
				<g>
					<path style="fill:#181A28;" d="M269.955,136.286c3.563,1.351,6.761,3.639,9.341,6.43c3.218,3.482,4.58,6.817,8.946,19.014
						c0.314,0.877,5.218-0.556,5.833-0.82c1.938-0.834,3.309-2.175,4.606-3.793c2.941-3.667,3.333-8.92,1.968-13.355
						c-1.227-3.986-4-7.475-7.607-9.569c-1.765-1.025-3.769-1.767-5.12-3.297c-1.774-2.009-2.026-4.904-3.116-7.353
						c-2.241-5.036-7.872-7.817-13.014-5.563c-1.569,0.688-3.103,1.544-4.798,1.789c-2.536,0.367-5.076-0.621-7.562,0.182
						c-3.046,0.983-6.478,2.985-8.195,5.859c-0.546,0.913-0.853,1.951-1.066,2.993c-0.263,1.285-0.387,2.647,0.038,3.888
						c0.624,1.82,2.942,3.101,4.769,3.367c2.468,0.359,4.916-0.706,7.364-0.865C264.917,135.026,267.538,135.37,269.955,136.286z"/>
					<path style="fill:none;stroke:#424863;stroke-miterlimit:10;" d="M272.498,117.667c-1.42,0.992-3.079,1.639-4.796,1.87
						c-1.978,0.266-3.992-0.015-5.981,0.142c-1.99,0.156-4.107,0.876-5.167,2.567"/>
				</g>
				<g>
					<path style="fill:#181A28;" d="M248.076,124.533c-2.592,1.159-5.161,1.299-7.965,0.962c-4.378-0.526-8.804-1.255-13.134-0.002
						c-3.919,1.134-7.546,4.115-8.328,8.119c-0.471,2.41,0.158,5.021-0.662,7.367c-0.888,2.543-3.085,3.399-5.302,4.564
						c-4.24,2.229-6.684,6.655-6.146,11.458c0.448,4.007,2.851,7.65,6.072,10.074c3.879,2.919,9.971,5.445,14.542,2.763
						c1.811-1.063,3.138-2.775,4.73-4.114c2.129-1.79,5.161-1.921,7.725-3c3.321-1.398,5.844-4.549,6.481-8.096
						c0.528-2.938-0.209-5.927,0.59-8.826c1.06-3.847,4.123-7.382,7.867-8.833c2.271-0.881,4.987-1.152,6.525-3.04
						c0.981-1.204,1.255-2.866,1.054-4.406c-0.324-2.482-1.844-4.781-4.001-6.051C254.276,121.207,251.408,123.043,248.076,124.533z
						"/>
					<path style="fill:none;stroke:#424863;stroke-miterlimit:10;" d="M261.444,126.294c-1.272-1.566-3.49-3.463-5.484-3.964
						c-2.325-0.584-4.673,0.66-6.715,1.615c-2.96,1.384-5.851,1.944-9.133,1.55c-4.378-0.526-8.804-1.255-13.134-0.002
						c-3.919,1.134-7.546,4.115-8.328,8.119c-0.471,2.41,0.158,5.021-0.662,7.367c-0.888,2.543-3.085,3.399-5.302,4.564
						c-4.24,2.229-6.684,6.655-6.146,11.458c0.448,4.007,2.851,7.65,6.072,10.074c3.879,2.919,9.971,5.445,14.542,2.763"/>
					<path style="fill:none;stroke:#424863;stroke-miterlimit:10;" d="M262.026,130.098c0.37,1.873-0.792,3.764-2.325,4.902
						c-1.533,1.138-3.398,1.709-5.168,2.424c-2.705,1.093-5.364,2.662-6.897,5.145"/>
				</g>
				<path style="fill:#181A28;" d="M220.644,105.514c-0.219-1.765-0.691-3.511-1.53-5.079c-2.351-4.39-7.176-6.785-11.786-8.671
					c-4.659-1.906-9.948-3.536-15.12-2.877c-5.729,0.73-9.862,4.341-13.071,8.928c-3.297,4.714-5.518,9.521-5.15,15.442
					c0.453,7.28,5.032,15.587,12.438,17.731c7.795,2.256,17.118-2.639,23.761-6.263c0,0,3.439-1.876,3.439-1.876
					C218.698,118.768,221.448,111.975,220.644,105.514z"/>
				<polyline style="fill:#EB8B65;" points="229.183,184.757 220.245,214.125 209.086,225.617 277.729,265.711 293.253,225.234 
					279.393,211.826 277.729,194.461 				"/>
				<path style="fill:#FFFFFF;" d="M282.114,181.4l-8.775-2.679c0,0-2.455,8.078,2.6,9.262
					C281.084,189.187,282.114,181.4,282.114,181.4z"/>
				<path style="fill:none;stroke:#000000;stroke-width:1.5;stroke-miterlimit:10;" d="M264.722,152.045
					c-5.208-3.248-10.454,1.212-12.466,5.93"/>
				<path d="M261.131,165.228c0.517,1.507,1.694,2.468,2.627,2.147c0.934-0.321,1.271-1.802,0.754-3.308
					c-0.517-1.507-1.694-2.468-2.627-2.147S260.614,163.722,261.131,165.228z"/>
				<path d="M282.356,160.29c0.517,1.507,1.694,2.468,2.627,2.147c0.934-0.321,1.271-1.802,0.754-3.308
					c-0.517-1.507-1.694-2.468-2.627-2.147C282.177,157.302,281.839,158.783,282.356,160.29z"/>
				<path style="fill:none;stroke:#000000;stroke-width:1.5;stroke-miterlimit:10;" d="M276.329,150.292
					c1.099-3.32,5.267-3.122,7.343-1.619"/>
				<g>
					<path style="fill:#EB8B65;" d="M237.958,169.645c-2.229-4.16-7.183-6.263-10.534-5.38c-4.969,1.31-6.884,6.567-6.618,10.987
						c0.242,4.026,1.549,7.412,4.385,10.557c2.665,2.954,6.691,5.434,10.651,4.257c2.696-0.801,5.006-3.713,4.969-6.122"/>
					<line style="fill:none;stroke:#000000;stroke-miterlimit:10;" x1="237.958" y1="180.801" x2="225.807" y2="172.615"/>
					<path style="fill:none;stroke:#000000;stroke-miterlimit:10;" d="M241.052,184.945c-0.775,2.678-2.919,4.997-5.77,5.319
						c-2.608,0.295-5.366-0.348-7.591-1.722"/>
					<path style="fill:none;stroke:#000000;stroke-miterlimit:10;" d="M236.43,168.902c-1.109-1.414-3.791-4.295-6.102-5.058"/>
				</g>
				<path style="fill:none;stroke:#000000;stroke-miterlimit:10;" d="M251.446,196.945c7.545,4.527,18.384,4.965,26.892,3.164"/>
				<path style="fill:none;stroke:#F7B154;stroke-width:2;stroke-linecap:round;stroke-miterlimit:10;" d="M203.52,128.139
					c4.329-5.96,10.711-11.4,17.262-15.542"/>
			</g>
			<g>
				<path style="fill:#212533;" d="M307.564,848.615c11.694,2.296,17.335,18.119,30.532,18.119h61.148c0,0-0.521-9.174-9.409-17.174
					c-8.888-8.001-36.631-13.513-39.738-29.166c-1.475-7.43-2.286-35.765-2.286-35.765l-65.015,16.957l-5.849,65.149h28.571
					L307.564,848.615z"/>
				<path style="fill:#2A2E3F;" d="M219.466,848.615c11.694,2.296,17.335,18.119,30.532,18.119h61.148c0,0-0.521-9.174-9.409-17.174
					c-8.888-8.001-36.631-13.513-39.738-29.166c-1.475-7.43-2.286-35.765-2.286-35.765l-65.015,16.957l-5.849,65.149h28.571
					L219.466,848.615z"/>
				<path style="fill:#B78E7E;" d="M203.19,398.591l-3.487,15.139c0,0-19.426,34.624-15.927,76.74
					c3.499,42.116,9.843,149.163,9.843,149.163l-10.234,175.903h104.113c0,0,12.925-157.791,12.759-221.974
					c-0.167-64.183-12.759-226.465-12.759-226.465"/>
				<path style="fill:#B78E7E;" d="M363.801,588.449c-2.745-55.164-38.788-167.492-38.788-167.492l-0.471-16.572l-79.688-3.805
					c-6.181,28.716-4.171,76.295-4.171,76.295l23.624,133.39l-9.263,205.271h107.041
					C362.085,815.536,366.546,643.613,363.801,588.449z"/>
				<line style="fill:none;stroke:#000000;stroke-miterlimit:10;" x1="199.703" y1="413.73" x2="325.013" y2="420.957"/>
				<path style="fill:none;stroke:#000000;stroke-miterlimit:10;" d="M299.446,469.579l-3.982,11.946c0,0,4.794,79.551,5.757,128.19
					c0.883,44.583-13.723,205.821-13.723,205.821"/>
				<path style="fill:none;stroke:#000000;stroke-miterlimit:10;" d="M215.236,414.626c-4.507,19.251-9.064,37.641-10.329,58.246"/>
				<path style="fill:none;stroke:#000000;stroke-miterlimit:10;" d="M297.849,419.391l-2.07,39.9c0,0,7.929-0.944,9.626-5.991
					c1.697-5.047,2.527-12.706,2.8-18.164c0.294-5.859,0.716-15.106,0.716-15.106"/>
			</g>
			<g>
				<g>
					<path style="fill:#F7B154;" d="M300.315,226.538c20.582,6.846,41.156,22.915,50.977,41.077s19.336,55.755,19.336,55.755
						s-49.365,20.147-81.871,23.153l-10.419-58.093"/>
					<g>
						<path style="fill:#DB7B5D;" d="M351.98,395.685c22.978-9.574,22.288-28.77,20.236-47.476
							c-1.404-12.797-18.613-57.92-18.839-82.751c-0.083-9.048-1.228-13.66-2.632-22.6c-0.752-4.784-4.41-17.164-5.553-22.222
							c-1.076-4.762-6.342-20.66-9.977-23.919c-1.111-0.996-2.429-1.867-3.915-2.006c-1.486-0.139-3.135,0.656-3.569,2.084
							c-0.438-1.754-1.075-3.51-2.269-4.867c-1.194-1.357-3.04-2.25-4.815-1.912c-1.776,0.338-3.26,2.157-2.873,3.922
							c-0.395-1.811-0.835-3.712-2.081-5.085c-1.246-1.373-3.577-1.947-4.957-0.708c-1.503,1.35-2.132,5.479-2.132,5.479
							s-2.653-1.893-3.82-1.232c-1.167,0.661-2.03,1.905-2.264,3.226c-1.385,7.784-1.754,14.447-0.419,22.905
							c0.708,4.49,0.173,14.701,0.173,14.701s-1.714-4.733-2.088-6.533c-0.374-1.8-1.051-3.607-2.369-4.889
							c-1.318-1.282-3.389-1.912-5.06-1.145c-0.47,0.216-0.903,0.543-1.16,0.992c-0.299,0.523-0.332,1.152-0.337,1.754
							c-0.03,4.017,0.889,7.972,1.397,11.956c0.215,1.683,0.356,3.374,0.497,5.064c0.337,4.035,0.675,8.07,1.012,12.105
							c0.316,3.777,0.642,7.582,1.564,11.27c1.12,4.477,2.157,7.749,5.012,11.449c3.977,5.153,4.938,8.715,5.905,12.393
							c0.967,3.678-0.83,56.892-0.692,72.22c0.054,5.974,1.457,11.76,3.614,17.332C316.306,394.592,340.778,400.353,351.98,395.685z
							"/>
						<path style="fill:none;stroke:#000000;stroke-miterlimit:10;" d="M353.138,262.441c-0.119,5.662,0.036,11.33,0.465,16.977"/>
						<path style="fill:none;stroke:#000000;stroke-miterlimit:10;" d="M327.826,197.406c-0.47,5.921,3.049,15.778,4.063,23.572
							c1.014,7.791-0.874,15.628-2.511,23.312c-1.637,7.684-3.027,15.721-1.049,23.325"/>
						<path style="fill:none;stroke:#000000;stroke-miterlimit:10;" d="M317.893,193.878c0,0,1.082,9.103,1.913,13.623
							c1.254,6.822,1.702,13.792,1.331,20.718c-0.022,0.415-0.218,0.975-0.626,0.896"/>
						<path style="fill:none;stroke:#000000;stroke-miterlimit:10;" d="M308.604,193.625c1.392,10.947,3.598,23.052,2.066,33.994"/>
						<path style="fill:none;stroke:#000000;stroke-miterlimit:10;" d="M302.269,232.76c-0.31,5.725-0.739,11.983-3.376,17.181"/>
					</g>
				</g>
				<g>
					<path style="fill:#F7B154;" d="M199.106,228.03l21.676-19.759c0,0,31.474,23.688,51.716,43.54
						c6.258-20.085,6.895-43.957,6.895-43.957l15.687,13.812c0,0,20.134,16.681,22.999,19.508
						c2.865,2.827,4.663,24.537,4.663,24.537s10.28,23.542,10.023,41.529c-0.257,17.987-4.164,23.513-5.552,34.243
						c-1.388,10.73,17.111,53.956,13.042,60.381s-15.421,8.608-15.421,8.608l-0.294-6.086l-121.351-5.794
						c0,0-12.523-3.446-14.322-9.1c-1.799-5.654-0.422-10.398-1.45-18.857c-1.028-8.459-13.227-71.623-15.54-80.361
						C169.565,281.535,199.106,228.03,199.106,228.03z"/>
					<path style="fill:none;stroke:#000000;stroke-miterlimit:10;" d="M324.572,404.666c2.058-0.241,4.18,0.079,6.075,0.916"/>
					<path style="fill:none;stroke:#000000;stroke-miterlimit:10;" d="M297.568,224.469c-4.055,12.85-13.831,17.485-20.761,29.064
						c-1.97,3.291-3.378,3.119-7.411,0.546c-5.66-3.611-49.318-19.966-67.588-26.129"/>
					<path style="fill:none;stroke:#000000;stroke-miterlimit:10;" d="M274.127,256.007c4.21,21.943,8.732,40.004,9.034,60.589
						c0.06,4.056-0.019,8.117-0.373,12.157c-0.357,4.073,13.28,42.374,16.823,57.479c0.66,2.814,2.274,7.234,2.203,10.124
						c-0.071,2.89-2.869,7.986-2.869,7.986"/>
					<path style="fill:none;stroke:#000000;stroke-miterlimit:10;" d="M327.038,341.227c-1.652,5.767-2.462,11.774-2.397,17.772"/>
				</g>
				<g>
					<path style="fill:#EB8B65;" d="M279.067,268.398c-3.083,14.988-25.638,54.006-25.638,54.006l-7.662-12.805l-59.565,45.397
						c0,0,23.49,31.095,32.096,38.746c12.684,11.277,24.639,18.179,43.798,18.713c45.667,1.274,57.823-72.495,65.118-119.193"/>
					<path style="fill:none;stroke:#000000;stroke-miterlimit:10;" d="M253.429,322.405c0,0-19.188,25.813-22.465,44.692"/>
					<g>
						<path style="fill:#EB8B65;" d="M296.825,230.261c0.512-2.694,1.027-5.424,0.842-8.161c-0.185-2.737-1.151-5.526-3.181-7.37
							c-0.735-0.668-1.671-1.218-2.662-1.144c-1.917,0.143-2.868,2.343-3.406,4.188c-1.755,6.015-3.509,12.03-5.264,18.045
							c-0.888,3.046-1.778,6.097-2.381,9.211c-0.667,3.443-0.979,6.943-1.401,10.424c-0.68,5.602-0.691,13.089-1.943,18.591
							l46.381,33.193l5.956-79.62"/>
						<path style="fill:#EB8B65;" d="M288.756,232.049c1.735-8.388,3.552-16.231,6.677-24.218c1.608-4.11,3.374-7.76,5.546-11.587
							c0.618-1.088,2.226-3.95,3.146-4.798c1.536-1.416,3.79-2.124,5.365-0.619c1.831,1.749,2.423,4.51,2.233,6.95
							c-0.206,2.652-1.191,5.17-1.96,7.716c-2.855,9.457-2.773,19.51-4.006,29.312"/>
						<path style="fill:none;stroke:#000000;stroke-miterlimit:10;" d="M293.234,213.928c-1.782,6.76-3.68,13.49-5.693,20.185"/>
						<path style="fill:none;stroke:#000000;stroke-miterlimit:10;" d="M300.663,196.808c0,0,3.736,1.382,5.313,1.447
							c0.519,0.022,1.063-0.098,1.422-0.422c0.625-0.564,0.765-1.483,0.808-2.249c0.053-0.936-0.202-1.6-1.079-2.207
							c-0.919-0.636-3.124-0.969-3.588-1.254"/>
						<path style="fill:#EB8B65;" d="M296.917,229.202c1.735-8.388,3.552-16.231,6.677-24.218c1.446-3.695,3.984-9.703,6.366-13.898
							c0.618-1.088,1.25-2.195,2.17-3.042c0.92-0.848,2.191-1.41,3.421-1.18c0.642,0.12,1.231,0.446,1.741,0.854
							c2.078,1.661,2.8,4.561,2.594,7.213c-0.206,2.652-1.191,5.17-1.96,7.716c-2.855,9.456-2.773,19.51-4.005,29.311"/>
						<path style="fill:none;stroke:#000000;stroke-miterlimit:10;" d="M296.917,229.202c1.735-8.388,3.552-16.231,6.677-24.218
							c1.446-3.695,5.214-11.679,7.596-15.874"/>
						<path style="fill:#EB8B65;" d="M307.763,231.169c1.277-8.47,2.222-14.629,4.908-22.774c1.382-4.191,3.639-10.284,5.601-14.223
							c0.558-1.12,1.129-2.259,2.002-3.156c0.873-0.896,2.111-1.527,3.351-1.364c0.647,0.085,1.828,0.607,2.36,0.986
							c2.165,1.545,2.469,4.174,2.407,6.833c-0.062,2.659-0.908,5.227-1.538,7.811c-2.337,9.598-1.709,19.632-2.407,29.486"/>
						<path style="fill:none;stroke:#000000;stroke-miterlimit:10;" d="M307.763,231.169c1.277-8.47,2.222-14.629,4.908-22.774
							c1.382-4.191,3.639-10.284,5.601-14.223c0.558-1.12,1.129-2.259,2.002-3.156"/>
						<path style="fill:#EB8B65;" d="M323.809,307.24c0.989-12.636,8.48-23.753,12.015-35.925
							c2.999-10.322,2.647-21.391,1.274-31.908c-1.03-7.889-1.87-15.855-1.107-23.824c0.601-6.279,0.903-14.019-0.425-16.989
							c-0.535-1.196-1.269-2.349-2.354-3.071c-1.084-0.722-2.573-0.929-3.682-0.249c-0.783,0.48-1.352,1.279-1.706,2.132
							c-1.313,3.163-3.052,8.193-4.048,12.789c-1.714,7.913-2.538,16.405-3.284,23.374"/>
						<path style="fill:none;stroke:#000000;stroke-miterlimit:10;" d="M320.494,233.569c0.746-6.969,1.569-15.461,3.284-23.374
							c0.996-4.596,2.736-9.626,4.048-12.789c0.354-0.853,0.923-1.651,1.706-2.132"/>
						<path style="fill:none;stroke:#000000;stroke-miterlimit:10;" d="M326.325,202.05c1.489,0.256,3.201,0.823,4.722,0.678
							c0.501-0.048,1.008-0.247,1.311-0.634c0.529-0.675,0.55-1.658,0.497-2.465c-0.065-0.987-0.392-1.649-1.309-2.166
							c-0.96-0.541-2.499-0.68-3.585-0.651"/>
						<path style="fill:none;stroke:#000000;stroke-miterlimit:10;" d="M316.876,197.5c1.718,0.546,3.649,1.47,5.471,1.587
							c0.6,0.039,1.232-0.085,1.656-0.45c0.737-0.635,0.924-1.696,0.995-2.58c0.086-1.081-0.191-1.856-1.19-2.582
							c-1.046-0.76-2.842-1.187-4.132-1.352"/>
						<path style="fill:none;stroke:#000000;stroke-miterlimit:10;" d="M308.212,194.948c1.73,0.507,3.682,1.385,5.506,1.461
							c0.601,0.025,1.23-0.114,1.645-0.488c0.723-0.652,0.885-1.716,0.935-2.602c0.061-1.082-0.233-1.851-1.249-2.554
							c-1.063-0.735-2.869-1.121-4.162-1.257"/>
						<path style="fill:none;stroke:#000000;stroke-miterlimit:10;" d="M330.379,285.517c-2.43,5.767-5.142,14.79-5.878,21.004"/>
					</g>
					<path style="fill:#F7B154;" d="M199.106,228.03c-8.636,7.485-8.178,6.578-16.947,13.868
						c-7.784,6.471-8.674,8.049-13.114,17.665c-2.546,5.516-3.86,11.589-4.706,17.669c-3.894,27.981-0.046,79.142,9.521,102.896
						c23.571-10.636,79.569-60.971,79.569-60.971l-26.126-45.962"/>
					<line style="fill:none;stroke:#000000;stroke-miterlimit:10;" x1="253.429" y1="319.157" x2="227.303" y2="273.195"/>
					<path style="fill:none;stroke:#000000;stroke-miterlimit:10;" d="M166.139,348.209c25.414-13.563,52.787-32.594,74.544-51.475"
						/>
				</g>
				<path style="fill:none;stroke:#000000;stroke-miterlimit:10;" d="M152.906,256.254c-4.391,10.394-7.256,28.154-5.754,43.793"/>
				<path style="fill:none;stroke:#000000;stroke-miterlimit:10;" d="M148.934,245.121c-6.146,7.475-10.788,16.182-13.57,25.451"/>
				<path style="fill:none;stroke:#000000;stroke-miterlimit:10;" d="M382.905,342.46c1.606,5.869,2.972,11.855,3.126,17.938
					c0.154,6.083-0.964,12.312-4.047,17.558"/>
				<path style="fill:none;stroke:#000000;stroke-miterlimit:10;" d="M394.126,335.031c2.594,7.257,3.883,14.978,3.787,22.683"/>
			</g>
		</g>
	</g>
</g>
</svg>
